<svg xmlns="http://www.w3.org/2000/svg" version="1.2" baseProfile="tiny" viewBox="-347.3 -50.3 512 512"><g fill="#475D8B"><path d="M149.6 150c-1.2-1.3-4.6-1.5-4.7 1 .5 2.4 4.3 0 4.6-1 4 1.5 7.5 3.3 11.3 5-1 6.3-3.6 10.8-11.4 10 5.7 1.8 12.6 2.5 13.2 9.8-.3 4-4 4.3-5.7 7 1.3 5.3 7 5.8 7.7 11.8-.6 4.3-5 4.5-6.6 8-2.7 0-7.4-3-8.4 1 1.3 2.5 5.8 0 7.5 0 5.3 4 11.5 12.5 3 17.7-4 .8-11.2-1.8-12.3 2 1.3 2.3 6.6.4 9.4 1 2.4 3.6 6 5.8 4.8 13-3 .6-5 2.6-6.5 4.8-3.6.4-5-5-8.5-1.8 4.4 5 14.4 3.7 14 11.8 0 4.8-4.3 7.2-10.2 9 .7 4.4 4.6 5.6 5.6 10-1.2 10.2-11.5 7.4-18 7.8.2 3.5 6.3.8 7.7 3 .3 5.7 4.8 8 2.7 13.8-2.3 2.3-6.7 2.2-9.4 4-3-1-3.6-4-7.6-4 1.6 5.3 7 6.6 10.4 10v7c-6 4.5-12 1.6-18.7 0 4.7 4.4 13.6 6.7 10.3 16.7-3.3 1.5-7 2.6-12.2 2-1.7-1.5-1.4-5-4.7-5-1.6 0-2.4.8-2.8 2 3.6 4.7 11 5.6 9.3 16-3 4-7 1.3-11.3 2.8-2.5-2-3-6-8.5-4.8 1.2 7 9.7 7.6 9.4 13.8-.8 14.8-16.7 1.6-21.7 2 2.2 5.6 9.4 6 7.5 16-6.3 7-14.5-1-19.7-4 4 5.3 11 16.7 2 21.7-8 .7-8.6-6.2-15-7 3.7 4 9.3 14.3 1.8 19-9.2 1.3-11-5-15-9-7 2.3 2 4.3 2.7 7 3.7 12.4-5.6 16.4-14 10.8-1.2-3-.5-8-5.7-7-1 5 2.8 5 3.7 8 .2 8-.8 12-7.5 12-6.8-.4-5.8-8.8-11.3-11-1 0-1 .8-2 1 3.3 4.5 6.6 15.2 0 18.8-5.5 1-6-3.4-10.2-4 0-4.3-.2-8.4-4.7-8-4 2.7 1 5.8 2 9-1.4 3.4-2 7.4-4 10-5 2-7-2.4-11.2-4v-6c-.8-2-5-2.7-6.6-1 3.2 6.6 3.6 16.3-2.8 18-7.6 1.8-8-8-12.2-13-2.7 6.5 2 19-7.5 18.8-6.4 0-6.5-8-10.4-13.8-5 3-.7 13.2-6.5 17-11 1.8-8-11-13.2-15-2.3 3.3 1.4 12.7-3.7 17-8.6 2.4-13.3-5.4-12.2-16-6.2-.7-2.6 5-3 9-4.4 13.2-20.5 5.8-16-9h-2.7c-2 1-.3 6.2-1 9-5.2 1-4 8.8-12.2 7-3.3-4.2-6.3-11-2.8-17-5.3-4-6.5 3.3-5.6 9-2.2 2.2-5.4 3.4-7.5 6-6.7 0-6.4-7.2-8.4-12 1-1.8 2.5-2.7 3-5-.3-1-1-1.5-2-2-4 6.7-6.2 19-17 13-1.5-5.7.3-12.3 0-17-5.5 2.2-6.2 9.3-10.3 13-13.5 2-9.6-12.4-7.5-19.8-5.6-1.4-4.8 4-5.6 8-4.6.3-6 4.2-10.4 4.8-8.3-4-2-14.2-2.8-20.8-5.7 3-6.4 11.2-13.2 13-2.8 0-3.6-2.2-5.6-3-2-9 4.4-12.4 2.8-18-7 1.8-10 15.5-19.8 8-1.2-8.2 1.3-12.5 4.7-15.8 0-1.4-.4-2.2-1-3-5 4.4-11.8 14.4-19.6 7-.4-7.7 2.4-12 6.5-15-2.3-5-6.4.8-6.5 4-4.6 1.6-12.4 3.8-15-1 1.2-7 .4-11.7 6.5-14.8-.5-1.4-1.5-2.4-2.8-3-5 4.8-7 6.8-16 7-7.2-7.6 2.6-14 5.6-19.8 0-1.4-1.6-1-2-2-3.8.4-4 4.8-6.5 7h-9.4c-6-6.2.8-15.6 6.7-18 0-1.3-.4-2-1-3-6.8 1.2-7 8.2-14 7-11-1.7-5.7-16.5 3.7-19.8-5.7-5.7-8.7 7-17.8 4-10-10 8.3-14.3 7.5-20.8-6 2.5-17.2 5.3-19.7-3 1.6-7 8-8.8 12.3-13-5.5-2-9.5 4.6-17 1-8-8.7 3.4-15.6 10.4-17.7 0-1.4-.5-2.2-1-3-6.2 2.5-13 4.3-17.8-1-2-11.7 9.5-9 13-14.8-4.5-2.5-13.4 3-18.7-4 0-9 4.6-13 14-12 0-1.3.6-2 1-3-3.6-4-13 1.2-17.8-3-4.4-12.6 8.5-12.5 15-14.8-5.4-1.5-17-.5-17.8-8-1-8.8 9-7.3 16.8-9.8-4.4-7.2-21.6-2.5-16-15 1-2.2 5-1.4 6.6-4.8 3.4-.7 3.6 2 6.6 2 1.2-.4 2-1.3 2-3-7.8-1.6-17-1.5-16-12 4.4-4.3 10.4-4 16.8-4.8-.3-4.6-6-.6-8.5-1-.2-4.4-5.6-3.4-6.6-7 1.2-10.5 11.4-7.2 18-8-4-2.7-11.2-2-13.3-6.8v-5c5-4.7 11.6-2.8 17-3-3.6-3.5-8.4-5.7-12.2-9-.8-3.6 1-4.6 1-7.8 5.8-1.7 11.3-2.6 16.8 0-2.7-7-13.3-5.8-12.2-16.8 3.7-8.7 15.8-.3 20.7-2 .3-5.3-6.3-3.3-9.4-5 0-5-5.3-4.2-3.7-10.8 6.4-6.4 15.5.5 21.7-1-7.4-5.6-20-20.8 0-20.8 2.3 2.7 5 7 9.4 5-2.2-7-13.3-4.6-11.3-16 .8-.2 1.2-.8 1-2 8-2.7 13.8-1.2 18 4 1.2-.2 1.5-1.6 2.7-2-3.4-4.3-11-6.5-10.3-12.8 1-12.3 14.4-4.8 21.6-1 .3-4.3-2.6-5.2-5.6-6-1-4.5-2.4-8.2-1-12.8 8.5-5.5 12.4 3.5 19.8 5-2-6-7.8-7.8-7.5-16 6.2-7 16.3-1 18.8 5 4.2-4-10-15 0-19.8 9.3-1.2 10.6 6 17 8-5.4-5.2-8.7-16.4-1-19 8-2.5 10 6.6 16 10-3.5-7-4.3-7.5-3.8-15.8 10.6-8.6 13.3 5.3 20.7 8-2-6.8-5.5-12 0-18 7-1.3 7.6 4 12.2 5 1.6-3.3 3-6.7 3.8-11 10-4.3 12.5 6.4 17 11-1.6-7-3.3-18.6 5.6-18.8 7 0 7 9.8 11.3 15 3-4.8-1-9.5 1.8-17 2.2-1.4 4.7-2.5 8.6-2 3.8 3.7 4.8 10.2 7.5 15 .2-6 1.2-12.5 4.8-17 8.6-.7 11.2 5 12.3 12 4.5-3.3 15.4-8.5 17 1 3 1.2.7-3.3 3.8-2 0 2.4-1.8 3 1 4 3.3.2 2-4.4 3.7-6 .6-2.7-4.5.7-3.8-2 0-4.7 3-6 4.7-9 3.6 1 4 5.2 5.7 8 .2 1.8-1 2.3-2.8 2-.6 3 1.7 3 1 6 4-2 6.2-6.4 10.3-3 2.2-.6-1-1.6 1-3 6 0 9 1.2 12.2 6-3.2 2.7 0 6-2.8 9 1 .7 2.4 1.2 4.6.8-1-3.2 5.2-3.3 8.4-5 3.7 3 10.2 7.7 17 4 9 5.6 21.2 7.5 34 9 2.6 5 8.4 9.6 15.8 7 5 2.4 7 13 15 8.8 4.3 4.5 7.5 10 16 10 1.8 7 7.3 10 15.2 10.8 1 7.8 6 11.4 13 13-.6 9 5 11.3 12.4 11.8-.5 8.4 3 12.6 9.4 14 1 7.5 3.6 13.8 11.3 14.7 1 8 2.4 15.3 9.5 16.8-1.3 9.3 1.5 14.2 7.5 16 0 5.2-1.6 14.6 6.6 15.7-2.4 8.4.4 15.6 5.6 19-1.6 5.3-1.4 12.7 4.7 12.7-2.3 6.2-2.5 13.7 1.8 17.8-5.2 8 2.3 16.2 0 23.7 1.4.2 10-.6 12.2-3 0-7.3-5.6-9.2-12.2-9.8-2-9 10-3.3 10.4-10-.2-2-4-.4-5.7-1-1-3 2-1.7 3.8-2 .5-5.7-7.7-2.4-9.4-6-.4-6 8.7-2.5 9.3-7.8-.4-2.3-4.7-.5-6.6-1 .8-1.8 4.2-1.7 2-4-1.8-2.5-7.3 2.2-8.6-2 0-4 3-5 6.7-5 6-5.2-1.2-14-9.4-10-.4-1.8-2.7-1.7-2-4.8 1-4.5 6.3-4 8.6-7-.8-10-9.8-4.6-15.2-6v-5c2-.7 3.2-2.4 6.6-1.8 2.4-8.6-4.4-11.4-11.3-8-1-1.6-2.4-3.3-1.8-7 2.2-.2 4-1 5.7-2 1.5-5.6-2-5.7-4.8-10.8-4 .3-7.5 4-10.4 0 .3-3.6 2.7-5 5.7-6 3.5-16.3-13.7-2-16-11.8 2.3-2.5 6-3.6 6.6-8-1.4-1.7-3-3.4-4.7-5-4.7-.2-5 4-10.3 3-3.4-5.8 2.8-6.6 2.8-11.8.7-2.7-1.8-2-2-4-7.3-1-8.7 5-14 1-1.4-5.4 2.4-5.4 3.8-8-1.2-3.4 0-3.5-1-6.8-5.3-2-8.7 0-12.2 4-2-.4-1.8-2.7-3.7-3 0-4.6 3.7-5.4 2.8-11-5.2-6-9.8 2-15 2-3.5-3.7-.2-8.4 1.8-11.8-1-1.5-3.7-1.4-3.8-4-4.3 2.3-5.6 4-11.2 6-.3-1.4-2-1.2-3-2 .7-4.6 2-7 2-10 .5-3-4.7-.3-3.8-4-5 1-9.5 9.7-15 4 0-5.2 3-5.7 1-10.8-2.6 1-1.2 6-4.8 6-2-2.7 2-4.7 3-7C17.8-18 18-8 12.2-8.4c-.2-1-.8-1.2-2-1-1.7-3.7 2-5.4 0-9-5-5-8.8 3-15 3-3.4-2.8.2-6.7-2.8-10-3.8-.7-.2 6.5-4.7 5-.7-3 1-3.6 1-6-1.8-1-6.6 3-6.7 7h-4.6c-2.4-4 2.4-10.8-3.7-12-4.3-1.4.5 6.6-3.8 5-.8-3.3 1.7-4 0-6-6-.4-3.5 7.8-7.6 9-7 .4-4-9-4.7-10.8-.6-2.4-5.8 0-6.6-2-4.2 1-3.3 7.6-7.4 9 .8-2.6 1.2-5.4 1-9 4.5-1.5 5.3-7 13-5 3 3.8 5.2 9.8 2 15 5-2.6 3.2-10 9.4-11 6-1 7.5 3 11.3 8 .7 4-3 3.3-2 7.8 3.8.7 2.8-3.7 3-7 7.4-6.8 19.5-2.7 15 10 6-6.5 22-11 17 6 3-4 9-8 16-5-1 4 1.7 4.7 1.8 8-1.7 1-3 2.5-4.6 4-.3 1.8 1.2 1.8 2 3 3.3-4.3 11-10.4 17.7-5 2 8 .7 7.3-1.8 13.8 4.8-2.6 6.8-8 14.2-8 8.8 4 .7 13.3 1 18 3.5 0 3-4.2 4.6-6 7-.6 15 .7 13.2 8.8.5 4.5-5 2.7-4.7 7 2.6 3.3 4.4-2.6 5.6-4 5.2 1.4 9.7-1 13.3 3 .2 5.3-3 5-1 10-2 1.4-5.8 1-4.7 5.8 4 .3 4.4-3.3 6.6-5 3 1.4 7.5.8 10.4 2 2.5 6.2-1 12.2-4.7 15 4 .4 12.2-6.4 16.8 1 .2 7-3 10.7-7.5 12.8 4.8.5 13-4.3 18 2 .8 8.5-4 11-7.7 14.8 1.8 2.5 4.3-2.7 6.6-3 2.7 3.5 8.7 3.5 11.3 7-.7 6.8-4.3 10.6-10.3 12 4.3 3.4 16.2-3.4 18.8 5.8-1.6 3-4 5-4.7 9-2.7 0-6.5-1-6.6 2 2.4 3 5.8-1 7.5-2 8.2 1.2 13.6 9 6.6 15.8-3.8-.4-7 0-7.5 3 7 0 10.5-.3 17 4 .7 7.4-3.6 9.4-6.7 12.8zM-127-35.2c-.4 3 3 2.2 2 6-1.8 3.2-3.8 4-7.6 3 0-4.6-2.8-6.5-3-11-3-.8-3.5 1.5-6.4 1-2.6 4.8 1 11.5-3.8 15 8-6.6 19.8 1.2 27.3-7 .3 2.2 4.4.5 3.7 4-1.3 0-7.7-.5-4.7 1 3-.8 8 1 9.4-1-3-5-8.2-21.5-17-11zm28.2 1c.7.6-.4-.4 0 0zm31 1c.7.6-.3-.5 0 0zm-94 14.8c-8.6 1.8-5.8-8.4-12.2-9-1 1-2.2 1.2-3.8 1 0 2.7 1 6.3-2.8 5-.8 4 4 1.7 2.8 6-1 1.3-2.5 2-3.8 3-3.2-4.3-9-11.3-16-6 .7 3.5 2 5.8 2 12-1.6-.4-1.7.8-3 1-5-3.6-7.5-12.3-16-7-.3 6.5 2.8 6.4 3 13.8-1.2 1.2-3.4 1.2-5.7 1 .3-6-5.6-5.3-7.5-9-1 2.5-2.2 4.4-5.7 4 0 5.5 3 7.6 3.8 12-2 0-1.2 2.7-3.8 2-3-4.3-11.4-7.5-16-2 1.4 4 4.7 5.4 4.7 12.8-2.2-.4-2 1.8-4.7 1-2.7-1-3.7-4-4.7-7-4 .2-8.2.8-9.4 6 1.4 4.5 7 4.6 5.7 12-.7 0-1 1-1.8 1-6.7 0-6.7-7-14-6 .4 3.5-3.5 2.4-3 6 1 4.5 6.4 4.5 6.6 9.8-.8 1.5-1.4 3.2-3.7 3-5.2-.4-6.5-5-12.2-5 0 3.7-3.3 3.8-4.7 6 2 4.8 7.5 6 8.6 12-1.8 0-.7 3-2.8 2.8-7.3-.3-6.8-5.4-14-4 0 3-2 3.5-3 5 3 4.2 9.4 4.7 10.4 11 1.3-1.4 1-4.4 1-7 6.2-2.7 11.8-6 11.2-16 5-.4 8.2-3.2 11.3-5.8 0-12.7 15.6-8.7 16-20.8 3.4 0 5.4-1.5 8.5-2 1.7-3.2 2.8-7 5.6-9 5.5 1.5 11.6-5 15-8.8 9 1 12-3.8 15-9 8 1.4 13.4-5 19-8.8 9 2.3 13-8.4 24.4-7 6.6-.2 6-5.4 13.2-3-.3-3.6-4.2-3.5-3-9-4 1.6-2.7-2.8-6.4-1.8-2 1.3-3.2 3.2-3.8 6 2 2.6 2 5.2 0 7.8zm57.4 1c7.2.8 3-6.4 6.6-8 2 .5 0 5.3 2 6 2.5-.8 2.3 1.4 4.6 1 2.4-3-.3-7 0-11-5 .3-7-2.5-11.3-2.8-3.3 3.3-2.7 9.6-2 14.8zm23.5-11v10c6.7 1.7 4-6.5 8.6-7 2.2 2.3-.3 4 0 7 6.5 2.3 7.6-5 6.6-12-7-.4-9.7-.2-15 2zm-7.4 3c.6.7-.4-.3 0 0zm3.7 0c.7.7-.3-.3 0 0zm-48 4c-1.3.6-4.8-1-4.6 1 1.3-.5 4.8 1.2 4.7-1zm50 0c-.8.3-2 0-2 1 .8-.2 2 0 2-1zm33 0c-1.2.2-2.8 0-3 1 1 0 2.7.2 3-1zm4.6 1c0 3 3.8-1 0 0-2.2-3-6.2 1.2 0 0zm-94.2 0c-.8.3-2 0-2 1 .8-.2 2 0 2-1zm34.8 7c-2.2-9.5-10.4-6.6-18-6-63.4 5.4-107.6 34-141 71.3-32.8 36.6-61.3 90.7-58.3 158.4 3 65.7 26.5 115.8 64 152.6 37.2 36.6 81.6 64.7 143 69.3 92.4 7 158.4-34.4 199.4-82.2 31.3-36.4 61.6-96.5 55.5-168.3-4.3-50.4-28.5-95-53.6-124.8C57 22 15-7.7-36.7-16.5c-12.3-2-29.6-6.2-32 2-3 10.7 18.2 20 22.6 22.8C-32.4 24-13.6 30 2.7 39 19.5 48.5 34.6 60.8 48 74.8c25.2 26.4 49 63.3 51.8 112C104 259 71.5 317.5 27.3 352c-42.7 33.5-112.7 54-179.7 32.8-39.6-12.6-73-40.7-96-73.3-21.2-30.4-41.3-82-32-136.7 7.6-44.5 29.7-79.7 55.6-105 28.5-28 64-38.4 97.8-61.4 10-4.8 25-11.6 22.6-21.8zm-54.6-3c5.2 0 9.3-1.4 13.2-3-5.3 0-10.4.3-13.2 3zm73.4-3c-.7.3-1.8 0-2 1 1-.2 2 0 2-1zm-97.8 4h2.8v-3h-2.8v3zm85.6-2c.6.7-.4-.4 0 0zm0 1v4c4 .4 1.2-2.7 2.8-3 2.2 1.7 13.4 4 15-1v4c3.6 1.4.2-4.5 3.8-3 0 1.4-.4 2.2-1 3 3-2 3.3-2.5 5.7-3-7.4-3.3-17.4-1.4-26.3-1zm-77.2 5c4.3-.8 7.7-2.5 11.3-4-5.5-.5-8.8 1.2-11.3 4zm75.3-1c2.6-5-4.5-2.5 0 0zm26.3 3c-10.3-.3-15.5 0-26.3 0C-103-4.7-113.5 2.8-112 6.3c20.2-2.4 37 1.2 55.6 0-6.7-4.2-11.2-10.7-17-16zm-113.8 3c-2-.4-3 0-2.8 2 1.6 0 2.4-.8 2.8-2 2.8 0 5.7 0 5.6-3-2 .7-5 .5-5.6 3zm-4.7 3c.7.5-.3-.5 0 0zm-5.6 2c-4.7-.8-10 3.2-8.4 5.8 2-2.8 6.6-3 8.4-6 4 1 .2-3 0 0zm216.4 0c-.5-.4-3.6-2.6-3.7 0 1.8-1 3.2 2.8 3.8 0zm10.4 7.8c.6.6-.4-.4 0 0zm-251.2 6c-1.4.5 0 1 0 0 3.2-1.3 6-3 8.5-5-5-.6-7 1.8-8.5 5zm153.3-3c7 .8 17 4 22.6 3-7.6-3-12.3-3-22.7-3-18-2-37.4-2.8-56.4 2 17-2.6 37-2 56.3-2zm105.4-1C36 8 33 6 33 8.4c1.7-1 3 3 3.7 0zm-140.2 4c-21.8 1.8-36.7 6.4-48 15.8 13.6-2.7 28-7.7 43.3-9 29-2.3 59.2 3 82.8 9-15.6-14-48-18.5-78-16zm149.6 4c.4 2 2.6 2 4 3 .2-2.7-1.4-3.4-4-3v-1c-.6-.8-2.4-1.6-2.7 0 .8.4 1.5 1 2.8 1zm-273.7 0c.7.5-.4-.5 0 0zM-238 23c-1.4.6 0 1.2 0 0 3.2-2.2 8.3-2.5 9.4-7-5.7-.3-6.7 4.3-9.4 7zm76.2 18.8c-2.4.2-3.6 1.5-3.8 4h3.8v-4c6.3-1 5-10 13.2-9 4.8 9.8 22 11 21.6-4.8 2.8-1.7 6.6-2.4 11.3-2-.3 6.6 8.8 3.3 8.5 10 3.2-.4 5.4-1.7 9.4-1-1.2-7.2 5.6-6 6.6-11H-79c-.4 6 7 3.8 5.6 11 3.7-.6 4.6 1.7 8.5 1 5-5 9.4-9.3 20-7 .2 2.3 1.4 3.7.8 7 4 .3 6.2 2.6 6.6 6.8 4.5-.7 6 1.6 10.3 1 0-4.4 5.3-3 5.7-7 2.8 1 7.5 0 8.5 3v7c5.6-2 1.3 6.4 6.4 5 1-3-3.7-7.4 1-11-41-23-114.7-26.6-158-4 1.3 1 2 2.6 1.8 5zM66 30.2c-2.8-1.5-5.4-8.3-9.5-5 4.2 0 5.5 8 9.4 5zm-306.8-4c-1-.2-1.7.2-2 1-4.8-.2-5.8 3.7-7.4 7-1.4.5 0 1 0 0 3.2-1.6 5.5-4 7.5-7 1 0 1.7-.2 2-1 1.2-.6-.2-1.2 0 0zm147.7 6c2.8-.5 2 3 5.5 2-.7-4-.7-4 0-8h-2.8c-.8 2-1.5 4.4-2.8 6zm8.3 2c3.3 0 4.5-2 6.6-3-3.5 1-1-4.3-3-5h-4.6c.6 2.4 1.4 4.5 1 8zm60.3-4c.6.6-.4-.5 0 0zM-140.2 60c3-6.3 7-11.2 9.4-18-13.7 3.4-19.2 20.7-33.8 20 1.7-2.7 5-3.5 8.4-4 0-8.8 4.7-12.4 4.7-21-8.6-.8-4.8 18.7-12.2 13-3 4-5 9.4-6.6 14.8 3.7 8 10.7 2.2 17 0-2 6-11.2 4.2-13.2 10-.5 4 5 1.8 6.6 4-1 1.3-4.5.3-4.6 3 26.2-.8 51.6-30.8 47-50.7-3.4 12-6.2 24.7-15 31 4-8.4 14.6-20.3 9.4-31.8-4 11-8.5 26.7-17 29.7zm208-26c-.2 1 .3 1 1 1 2.2 3.3 5 6 8.4 8-1.3-4.3-4-7-8.5-8 .2-.7-.4-.8-1-1-.5-1.3-1 .2 0 0zM-49.8 47c-3.4-4-5.8 6.4-2 7 .8-2.3 1-5 2-7 7.8 11.2 18 20 28.2 28.7 3-1.4 5.6 4.6 5.6 0h2c.7-.4 1.6-1 1.8-2-.8-2-3.6-2.2-3.8-5 7 1 10.3-1.7 12.3-6-3.7-4-6.5-14-11.3-13.7.8.2 2.5 4.4 1 4-4.5-2-2.7-10.5-7.6-12-2.6 11 9 15 12.2 22.8C-19.7 62-20.6 45.6-32 48c-.4 15.3 11.6 17.5 16 27.7C-29.8 69-34.7 53-43.3 41c-.8 5.3 5 7.6 3 11-6.4-4-4.6-16.5-13.3-18-.2 4.3-5.5 11-1 14 0-3 .3-5 2-6 1.6 1 3.2 2 2.8 5zm-51.8-9c-.8 4.3 1.6 5 3.8 6-.2-2.8 0-5.4 2.8-5 .6 2.4 1.3 4.7 3.8 5 1-1 1-3.5 1-6-3-2.8-8-1.6-11.4 0zm18.8 6c5 1.3 2.5-5.3 7.6-4v6c3.8.4 3.7-3.4 5.6-5-1.8-7-17.4-6-13.2 3zm23.6-1c2.4.6 4.6-7.2 1-7-1.4 1.4-1 4.4-1 7zm-129 28.8c-3-1-3 1.5-3.7 3 2.6.2 4-.4 4-3 8-3.5 4.6-10.5 15-10 3.5-6.8 6.4-14.2 6.5-24.7-9 2-15 6.8-21.6 11 11.5 4.2 5.4 17.4 0 23.8zM-111 43c1-2.7-1.5-7-2.8-4 2 .3.2 4.5 2.8 4zm-2.8 17c4.4-3 9-6 12.2-10-.4-5.6-4.7-7-5.6-12-.8 8.5-8.5 14-6.6 22zm58.3 30.6c-1.4.6 0 1.2 0 0 5.8-1.8 4.8-10.8 9.4-14 .7 6.2-3 7.5-3.8 12 5-.2 5.6-5.3 8.4-8 3.2 8.8-9.2 9.4-12.2 15 3 .6 4-5.6 6.6-2-8 8-15.8 16.4-29.2 18.8 6.4 7.2 9.3 18 12.2 28.7 5-6.5 12.4-20 24.5-12.8.6 3.6-.6 5.3-2 7 3.5 0 4.3 3 4 7-1.3 2.3-3.2 4-6.7 3.8-1.6-1-2.4-2.7-2-6 3-1.2 5.3 3 6.7 0-5.5-9.4-15.3 1.4-14 11 13.7 7.6 26.5 16.3 32.8 31.7-.8 3.4-2 6.4-3.7 9 7.5 0 5.3 10 5.6 17.7 3 .6 4.4-.6 6.6-1 1-34 1.6-74 2-107-3.6 0-5.5-1.5-6.7-4 .4-2.8 1.6-5 3-6.8C-39.4 81.6-53 60-66 38c0 7-6 7.6-6.6 14 4 2.8 7.5 6.6 11.3 10 .4-2.2-1.3-6.7.8-7 4.3 6.3 5.6 15.8 6.6 25.7 2-3 1.2-8.6 2.8-12 3.2 8.8-2.6 15.4-4.7 22zm-208-43.6c3.3-2 6-4.5 7.6-8-4.4.6-6.2 4-7.4 8zm109.2 8c5.7-.3 10.8-12.7 5.7-15-1.7 5.3-4 9.8-5.7 15zm41.4-7c0-3 .2-6-2.7-6 .5 2.5 0 6 2.8 6zm96-4h2v-2h-2v2zm-128 4c.4-1.2 4-3.8 1-5 0 1.5-3.4 4-1 5zM3 65.8c1.4-5.3 4.8-1.4 8.5-1 2-3.5 5-6 7.5-9C11.6 51.7 5.4 46.3-2.8 43c-2.6 8.5 0 19.6 5.6 22.8zM-99.7 49c6.6-.6 9.5-2 17-1-2.3-3.7-15.7-2.8-17 1zm24.5 2c2.2-3-2.8-4.5-6.6-4 .3 3.2 5.2 1.8 6.6 4zm-40.5 1c-1.6 0-.5-2.8-2-3-.7 2 1 6 2 3zm204.2 3c-1-3-2-6-5.7-6 .5 3.4 3.4 4.3 5.7 6zm-272-1c-12-10-23 10.7-33.8 14.8-3 7 2 12.7 9.4 12-1.2-6.5 4.4.6 5.7-3-1.3-.3-.8-2.5-1-4 1.8.8 2.5 2.7 5.7 2-.2-5-.2-5 3.8-4 1-3.4-3.4-6.3-1-8 2.8.5 2.3 4.3 4.8 5 0-2.6-1-6.2 2.8-5 1.2-3.7-4-5.6-2-7 4-.6 2.4 4.3 5.8 4v-7zm-105.3 26.7c-4.6 1-8.7 8-6.6 12.8 7.5-15.5 21-30 28.2-42.5-9 8-17 17-21.6 29.7zm190-27.8c-4 .3-6.8 2-8.4 5-16 6.2-15.3 40.8 1 46.4 1-2 1.5-4.2 3.7-5 1.6 3.4 9.8-2.5 14-3V82.8c-5 2.4 0 15.6-8.4 14.8-2.7-.7-3.7-3.2-5.5-5-1 0-1.7.3-2 1-16-19.2 10.8-44.2 29.3-30.7 10.2 6.8 12 27.6 1 34.7.3 4.2-2.2 7 0 11C-42.3 96.2-60 37-99 52.8zm50 5c-1.3-3.2 2.7-5.6 0-7-1 .8-2 6.3 0 7zm-69.7 0c-.5-1.5 1-5.2-1-5-1.2 1.2-1.4 4.8 1 5zm72.4 4c.8-1 2-6.5 0-7-1 .8-2 6.2 0 7zm-76.3.8c1.5.2 2-6.4-1-5-.7.8-2.4 6 1 5zm79 2c1.3-1.3 1.8-7-1-7 .7 2-1 6.6 1 7zm58.4 1c.2-2.4 3.2-.2 3 1-1.8.2-.7 3.4-2 4 4.3-2 3.6 1 2.8 5 2.4 1.8 9-.4 5.7 5 8 .6 8.2-6.7 9.4-13-5.3-5-18.3-14-19-2zm-132.6-2c.2-1 1.7-2.2 0-3 0 1.2-1.7 2.3 0 3zm-9.4 4c3 1.4 2.4-6 1-6-1 1.2-1 3.6-1 6zm41.4 0c3-1 4-3 5.7 1-1.3 2.6-3.4 3.7-6.5 2-.8 2.4-1.3 5.3-1 9 .8.8 6 2 6.6 0-2-1-.8-6.2 2-5 2.4 0 2 3.2 2 6h8.3c.2-5.3-.4-9.5-3.7-11-.2 2-2.4 2-4.7 2-.2-1.3-1.3-1.4-1-3 .2-2 3.4-1 3.7-3-4-1.3-6.2-4.6-12.2-4-.2 2.5-.2 4.8 1 6zm184.4-2c-2.2-.7-2.5-3.3-4.7-4 0 2.4 3.4 6.4 4.8 4zm-273.8-1h2c1.4-2.4-3.3-3-3-1 .7 0 1.2.2 1 1zm135.5 5c.6-2.5 3.7-7.3-1-7 .6 2-1 6.5 1 7zm-61-5c4 4 1 11.7-1 16 8 1 3.5-11 4.6-17-1.7-.2-2 1.2-3.6 1zm7.4 0c-4-1-.3 3 0 0h.8c.6 1.5 1.2 0 0 0-.2-1-1-.5-1 0zm-79 2c1 4 1-4 0 0zm43 5c-.4-1.8 1.3-6-.8-6-.4 2.2-2.2 5.4 1 6zm94.2 2c.2-1.5-.3-3.7 1-4v6c3 .3 1.5-4.4 2.8-6-3-.2-2.8-3.7-5.7-4-1.3 1.7-2 9 2 8zm25.4 1c3.5-2.3 6.6-5 8.5-9-5 .5-6.6 4.8-8.4 9zm-170.3-7c-1 3.3 3 1.5 4.7 2 .2-3-3.3-3.5-4.7-2zm86.6 3h1.8c0-1 .7-1.2 1-2-1.3 0-1.4-1.3-3-1v3zm108 5c.4-3.8-1.7-10-4.6-7 3.4.3.8 7 4.7 7zm-115.6-6c-1.8.2-2-1-3.8-1-1.5 2.7 4 2.7 3.8 1zm98.7 4c4-1 8.6-1 9.6-5-5-.3-9 .5-9.5 5zm-168.3-3c.6.6-.4-.5 0 0zm16 21.8c-2-6-4.5 3.2-9.4 1 0 2.6-.5 5.8 2 6 1.2-3.6 4-5.7 7.4-7-3 5.5-8.4 8.2-11.3 13.8.2 35-.3 67.3-1.8 97 9 6-1.8 21 2.8 30.8 1.6-11.5 3.3-23 8.4-30.7-4.8-1.8-5-8.5-4.7-15.8 1.3-1.4 4.6-.7 5.8-2-2.3-13 3.7-26.8 2-32.7.6-1.6 4.5.2 3.6-3 0-14 6.6-20.8 8.5-32.7-3.6-3-6-7-5.7-13.8 3.5-.3 8.5 1 9.4-2 1.6 3.6 6.2 4 7.5 8-2.5 3.2-4.4 7.2-9.4 7.8.5 15.6-2.4 30.4-5.7 44.6-1.8 8.3-7.8 17.5-5.5 24.7 3.6-2.8 2.3-11 6.6-13v2c13.8-4.3 46.6 2.8 53.7-11.8-13.6.6-33 1.6-44.2 7.8.3-2-.2-3-2-3-3.5.5-4 4.3-7.4 5 2.3-5.6 8-7.5 14.2-9-1.3-12 10.4-10 13.2-17.8-2.3-6.2-8-14-17-10 1.2 5.4 5.7-3.2 6.6 3-.8 1.6-1.4 3.2-3.8 3-2.3.2-3-1.4-3.7-3 2-6.2 0-10.6 3.7-14.8 11.8-5 18.5 17.3 23.6 17 6-.6 8.8-25 12.2-29.8-18.2-3.3-28.6-14.8-34.8-30.7 2.4-3 8.8-7.2 6.6-12-7.5 10.7-20.5 15.5-31 23zm21.7-17c-.5-1.3 1-5-1-4.8-1.3 1.2-1.4 4.8 1 5zm-52.7-3c2 4.6 8.7 4.2 14 5 .6-6.6-9.2-7-14-5zm157 7c-.2-3.8 2.7-7-1.8-7.8.2 3-1 7.7 1.8 8zm58.4 5c7.5 4.7 14-10.6 6.7-12.8-1 5.6-5.8 7-6.6 12.8zm-124-8c1.4-1.4 1-4.3-2-4-.2 2.4.3 4 2 4zm-42.4 2c2 .3.4-3.4 1-5h-3c.5 2-1.2 6 2 5zm30-1c-1.4-4 5.3.3 4-4-3 .8-2 .8-4.8 0 0 1.6-.4 3.8 1 4zm99.8 2c1.7 3.8 12.2 2.4 14.2 0-2.3-.5-7 1.3-7.6-1 2.8-2.3 9.5-.5 10.4-5-6.2 3.5-15.3-.3-17 6zm-292.6 17c-2 1.6-5.4 7.4-2.8 10.8.5-5 4.4-6.6 4.7-12 1.4-.5 0-1 0 0-.7.3-1 1-2 1 1.4-4 2.6-7 1-11.8 1.8-2.5 6.5-1.8 6.7-6-7.5 1.6-6.5-5.7-14-4-3 3.7 4 3 3.6 7-2-.5-2.7-2.4-5.6-2 0 6 6.8 4.8 8.4 9 1 5-2.7 5-4.7 7-5-3.8-6.4-3-12-3 0 3-2.2 3-2 6 2.8 4 10.5 2.8 10.4 9.8-.8 1.5-1.4 3-3.8 3-5.8-2.7-6.7-2-12.2-2 .6 3.6-2 3.8-2 7 3.3 3.8 10 4 11.4 9.8-1 .2-.8 1.8-1 3-6.6.5-10-1.7-14 1-4.2 10.2 9.8 5.7 8.4 16-5.5 2.3-13.7-3-14 5.8.8 4.7 9 1.5 9.3 7-3 6.8-15.7-2.3-14 9.8 4.6 2.7 11-.7 12 7-4 3.8-8 1.5-13 4v6c2 1.6 5.2 2.3 9.4 2 1 2 2.3 4 1.7 7.8-1.5 1.5-7 1.5-8.4 0-3 2-4 8-1 11 4.3-1.6 7.6-.6 10.4 2-.7-13.3-1.6-22 2.8-34.8.7-4-3-3.4-2-8 4.4-2.6 5.2-8.8 4-14.8 3.8-1.8 6.2-9.5 3.6-15 5.4-3 7.7-9 6.7-18.7 5.7-3 10-9.2 7.6-17.8 2.3-.8 3.6-2.7 6.5-3zm86.6 52.4c-5-12.6-.6-28 3.8-38.6-7.4-6.6 3-19.6 0-25.8-.6-3.3-5.5-2-8.5-3-2-2-1-7.4-5.7-7-5 9.6-21 19.7-23.5 30.8-3 13-1 32-1 45.6 0 14.6.6 27.6 0 39.6 15.6 1 30 3 44.3 1-12-5.4-20-31.2-9.4-42.6zm189-66.3c-.2-3.4 1.4-8.6-2.7-8-.5 4.7-1.2 6.6 2.8 8zm-116.6-2c1.3-1.3 1.5-5-1-5 .6 1.5-1 5 1 5zm129-1c.8-1.8 3.4-1.7 3.7-4-2.7-.7-6.7 2-3.8 4zm-185.4 0c0-2 3-.7 2.8-3-2.4-1-5.4 2-2.8 3zm13.2-1c.3 1.3 2.3.8 3.7 1v1c3.2-1 6.5 3 8.5 0-1.6-1.7-5.5-.8-8.5-1-.3-1.4-2.3-.8-3.7-1-.7-1-1.7-1.5-3-2-.3 2 1.5 2 3 2zm163.7 6c-.4-4.8 2-6.6-2-8-.8 2.6-2 8 2 8zm36.7-5c0-.6 0-1.2 1-1-.2-1.2-.4-2.4-2-2 .2 1.2 0 2.8 1 3zm-161 3c.7-.8 2.4-5-1-4 .3 1.5-.2 3.6 1 4zm180.7 7c6 0 8-4.3 9.4-9-1.7 0-1-2.7-3.6-2-1.7 4-4.2 7-5.7 11zm-236-9c.5.6-.5-.4 0 0zm8.3 0c1.2 4.5 11 7.7 13.2 5 0 3 2.8 3 5.7 3v-4c-3.7 2-2.2-1-5-2-.4 5-3.2-3.2-4.6 2 .2-4.6-7.5-4.8-9.4-4zm209.8 0c1 4 1-4 0 0zm-187.2 1c1.4 3.2 2.4-4 0 0zm16 3c2.3 1.8 7 0 6.6-4-3 .6-6.7.2-6.6 4zm136.4 2c0-2.7.6-6-2-6 .7 2-1.4 7 2 6zm5.7-1c-1-3.2-.5-2.7 1-5h-3c-.5 2.4-1.8 5 2 5zm118.5-4c1 4 1-4 0 0zm-233.3 1c.4 3.7 3.8 9.7 6.5 8-1.6-2-1-6.3-2-9-2.6-1-2.3 1.4-4.6 1zm19.7 7c1-3.2-.6-4.5 1-8-6-1.3-3.6 7-1 8zm2.8-7c3 3 2.8-3.7 0 0zm11.3-1c-2 .6-6.2-1.3-6.6 1 1.2 1.3 6.5 1.8 6.6-1zm97.8 8c-3.4.5 0-6-3.8-5-2 .2-.2 4.3-2.8 4v-4c-3.8 1.2-2.3 2-5.6 0 0 1.5.4 3.7-1 4 1-2-1.4-4.8-1.8-2 1.7 0 .5 3.3 1.8 4 5.6-.2 8.7 1.2 13.2-1 4-1.3 9.3-1 11.3-4-5.3-4.8-2-.5-8.6-3-1 1.8 3 3.3 0 4-1-1-.3-3.7-2.8-3v6zm-165.6-3c1.5 3.3 7.4-2 3.8-4 1.4 4-5.2-.3-3.8 4zm80 0c0-1.4.4-2.3 1-3-1.3 0-1.4-1.3-3-1-.2 2.2.3 3.7 2 4zm2.8-2h2v-2h-2v2zm6.6 3c.7-.8 2.5-6-1-5 .6 1.4-1 5 1 5zm93-1v-4h-2.7c0 2.4 1.5 3 2.8 4zm-183.3 2c.2-2.6.3-5-1.8-5-.6 2.4-2 5 2 5zm-7.4-3c-4 1.3-4.5 6.5-5.7 10.8 2.2 2 5.6-2 8.4 0-.3-4.3-2.5-6.6-2.8-11 1.3-.5 0-1 0 0zm236 24.7c-6.5-9-11-20.2-20.6-25.8-1.7 6-8.2 6.6-13.2 9 7.6 30.3 12.4 71.4 8.5 105h23.5c1.6-31 1.2-60 2-88.2zm-276.5-4c10 .4 9.5-15 10.4-20.8-4.2 1-2.8 7.5-6.5 9-2-2.5 2-4.3.8-9-5.4 3-6 14-4.7 20.8zm4 30.7c12.2-1 3.7-24.2 11.2-30.6.5 10.2-1.6 17.5-3 25.8 8 1.2 4-10.4 6.7-15 4.5 2-.8 8.8 1.8 12 3 .5 2.5-2.7 4.7-3-2.3-11.8-8.6-30-5.6-35.6 1 2.6.2 7.6 2.7 9 1.4-3.4 2.3 2 4.7 1-.2-4-5.3-2.5-5.7-6 1.8-.3 2 1 3.8 1-2.3-4.4-5-4.4 0-5-5-1-7.2-5-13.2-5-1.7 18.3-5.6 34.4-8.4 51.5zm38.4-50.4c2.3 5 2.5-3.4 0 0zm191 0c2.4 4 1.4-3.3 0 0zm-112 1c1.4 3.3 2.4-4 0 0zm-17 2h2v-2h-2v2zm4.8 1c1.4.2 1.6 1.6 3 2-.8-3 2.4-2 1.7-5-2.3.3-4 1-4.8 3zm113 1c2.8 0 6 .5 5.6-3-2.4.4-4.3 1.4-5.7 3zm-96-1c.6.6-.4-.4 0 0zm-4.7 2c1.3 3.2 2.3-4 0 0zm73.4 4c1.3-3.3 1 3.2 3.6 2-.4-4.8 1.2-2 2.8-1 .7-5-2-6.6-6.5-6-.7.6-2.3 4.7 0 5zM15 134c2.3 0 3 1.7 5.7 1 .6-2.4-1.2-7.2 1-8 4 .5-.6 10 3.7 10 1.5-5-3-10.4 1-12 2.5 6 1.5 15.6 7.5 18-1-16.4-3.2-39.8-11.4-51.6h-2c-3.8 12-6.7 25-5.5 42.6zM-75 96.5c.4-1.4 1.3-2.5 1.8-4-2.3-1-4 3.4-1.8 4zm87.5-1c3.5.5 5.8-.4 6.5-3-2 1.2-6 .3-6.5 3zm-105.4-2c-.8.3-2 0-2 1 .7-.2 2 0 2-1zm127.8 97c-3-6.4-1.5-17.4-1.8-26.6-6.8 3-11.4 13.6-8.5 23.7 6 3.5 11.3 7.8 15 13.8 4-38.2 1-77.5-8.4-107 0-.7-.7-1-1.8-1 7.3 30 8.3 63.3 5.6 97zm81-95c-.2 4.4 3.7.3 0 0 .8-4-3-.2 0 0zm-196.7 0c-.7 0-.8.4-.8 1-1.4.6 0 1.2 0 0 .8.2 1-.4 1-1 5 1 1-3 0 0zm86.7 10c.6-2 2.5-4.5 1-6-2.8-1-3.6 4.7-4.8 2 .4-2 2.2-3 1.8-6h-7.5c0 6.7 4 9 9.4 10zm4.7-5c3 0 5-1.4 6.6-3-3.4-.2-5.7.7-6.6 3zm-181.6 3c3 0 5.7 0 6.6-2-1.6-1.3-3.2-2.7-6.6-2v4zm76.2 1c4.4.3 4-1 8.5 2 0-3-1.2-4.8-2-7-4-.4-7 .5-6.5 5zm13.2 2c.4-5.7 4.2-1.6 4.7 1 1.3-1.5 1.3-6.6 0-8-5.6-2-9.2 4.8-4.8 7zm-99.8 1c-1.4 0-3.5-.6-3.7 1 3.2 2.8 1.4 11 8.4 9.8 1.5-5.4-4.7-2.8-4.6-7 1 .8 2.2 1 3.8 1 .7-3.6-3.6-2-3.8-5 1.4.2 2.7.3 3-1-2-2.6-4.7-4.3-7.7-5.8-.2 4.2 4 4 4.7 7zm8.5-1c-6.6 4.7 1.3 15 0 22.7-1.2 6.5-5 5.6-7.6 11-.7 14-1.3 45.4-1 65.3 4.4 0 9.2.4 12.3-1-.3-38.5 2.5-57 2-99-3-.8-3 1.6-5.8 1 2-2.4-.5-5.4-3-6 0 3-.5 6.5 3 6zm163.6 102c4.7-.7 6.6 1.6 11.3 1 1.7-27 1.3-55.8 1.8-82.3-.7-2.5-6-.2-5.7-4 3-.7 3.6 1 5.8 1v-15.8c-5-1.4-6.4-6.5-11.3-8-1 34.8-1.2 73.7-2 108zm-90.3-100c3-.8 3.4 1 5.6 1-.5-3.6-1.7-6.3-3.8-8 1.6 3.3.6 5.5-2 7zm109-2c3.4-.3 6.2-1 5.8-5-2.4 1-5.3 1.6-5.6 5zm-113.7 1c2.7 1.4 2.7-4.5 0-3v3zm-36.7 1h1.8v-2h-2v2zM-209 145c1.8-5.6 3-12 4.7-17.8-3-1-3.6 4.8-4.8 2 2-6 9.5-16 5.6-21.8-6 6.5-14.7 28-5.6 37.7zm73.3-37.6c-.7.2-1.8 0-1.8 1 .7-.2 1.8 0 1.8-1zm43.3 1c2.5 4.6 4.7-2 7.5 3 .2-2 3.2-.7 3-3-2-1.5-8.5-1.5-10.5 0zm101.6 3c3 .2 4.6-1.2 4.7-4-2.2.6-4.7 1-4.6 4zm-90.3 1h3c.8-3.2-1.5-3-3-4v4zm-53.5-2c-2.3 3.3 3-2.4 0 0zm141-1c-1.3 14 3.7 3.7 0 0zm117.7 0c-.7.2-1.8 0-2 1 1-.2 2 0 2-1zm-384.8 94c22.3 1 44 2.6 66.8 3-2.3-21.6-41.4-4.5-56.4-12.8-1-34.3 2-57.3 0-83.2-16 20-7.4 59.7-10.4 93zm167.5-89c-2 4.8 3 2.6 2.7 6H-94c-.8 4 4.4-1.6 3.7 4H-95c.8 5 2.5 9.2 4.7 12.7 14.8 4 14-16 9.4-23.6-4 .4-9.6-1-12 1zm102.4 3c3.2.6 3.5-1.7 3.8-4-3-.5-4.2.8-3.8 4zm-316-2h-1c-.8 2.5-4.8 6.7-2 9.8.6-3.7 3-5.4 3-10 1.3-.5-.2-1 0 0zm376.2 86c-10.8 2.3-19 .2-28.2 0-.4 3.3-1.8 5.5-2 9 14.4-.6 27.6 1 39.7 0-2.4-29.6 9.8-75-7.5-93 0 30.5-.4 54.8-2 84zm-246.5-77c.7-4-2-4.5-4.6-5-.8 4 3.2 3.2 4.7 5zm185.5-2c2.2-.5 4-1 4.7-3-2.4 0-4.8 0-4.7 3zm0 3.8c1.4.2 3.5-.3 3.8 1-3-.8-3 1.6-3.8 3h3.8c1.3-1.3 1-4.3 1-7-3-.4-4 1.3-4.8 3zm-184.4 3c.3-3-4-6-5.6-4 2.5.8 3 3.6 5.7 4zm307.7 3c-.2-3.7-1.4-6.4-3.7-8 1 3 .7 7.2 3.7 8zm-203.2-6c-.7.3-1.8 0-2 1 1-.2 2 0 2-1zm-144 38.7c5.2-.3 4.6-6.2 3.8-10 6.5 2.4 1.7-7 5.7-7 0 1.6 0 3.5 2 3 .4-1.7-1.3-5.8.8-6 1.8 7 2-4.7 5.6 1-.2-5.4 1-4.8 3.8-3 1.6-.5 0-4.6 2-5-.2 1.8.6 2.7 1.8 3 1.6-1.2 0-5.8 2.8-5.8 0 1.5 0 3.4 2 3-.6-5.8 1.2-3 3.6-2 1-2.7-1.8-6 0-6 3-.5.4 5 3.8 4 .2-4.2-1.8-6-4.7-7-12.3 11.2-31.6 15-33 37.7zm86.6-31.8h4c-1.2-3 1.4-2.4 1.8-4-1-1-5.2-3.7-6.6-1 3 1.2-1.4 3.8 1 5zm80-4c-.3 2.4 1.8 2.2 1 5h4.7c-1-3.2 0-2.3 0-6-2.8-.7-2.7 1.7-5.6 1zm-8.4 7c3.6-.8 4.5 1 7.6 1-.7-2.7-1.5-5-3-7-2 1.5-3.3 3.6-4.6 6zm-65.8 0c2 2 5.2.4 6.6-1-.2-2.6-1.4-4-3.8-4 .4 3-2.5 2.6-2.8 5zm50.8-4c.6.6-.4-.4 0 0zm91.2 9v4c3.6.7 1.2-5 4.7-4 0 2.4-1.7 3 0 4.8 3.4 1.6.6-3.3 3-3 1.6 1.2-.6 6.5 3.6 5 .2-2.3-1.5-3-.8-6-4.8-4-15-2.6-16-10.8-2-.4-2.5.7-3.8 1 2.2 3.3 1 3-1 6 3.3-1 5 .8 3 3 3.4 1 1.4-3.8 4.6-3-.7.8-1 2.2-1 4 2 .3 2.6-.8 3.8-1zm-165.5 6.8c4-1.5 4.2-12 2.8-15.8-.3 6-3.7 8.6-2.7 15.8zm-168.5-9h-1c.3 1-.3 1-.8 1v2c2 .5 1.8-1.3 1.8-3 2-.7 1.6-4.2 3-5.8-3.5-.6-3 3-3 6zm219.3-4.8c.7.6-.3-.5 0 0zm-1.8 1c-.8.2-2 0-2 1 .8-.3 2 0 2-1zm-178.8 67.3c3 1.6 11.2 1.6 14 0-.7-22.4 1.4-46.8 0-66.4-8.5 18-13.8 39.6-14 66.5zM-96 138c1.5 0 3.3.3 3-2h-2c0 1-.8 1.3-1 2zm24.5-2c-.7.4-1.8.2-2 1 1 0 2 0 2-1zm-47 5c1.8 2 4.4.6 6.6 0 .7-6.8-5.4-2.3-6.5 0zm43.3-3c-.4-.7-2.5-1-3 0-.5 2.4 3.8 2.3 3 0zm7.5-1c-.7.4-2 .2-2 1 .8 0 2 0 2-1zm7.5 5c2 .8 4.7 3 6.6 1 0-3.8-3-4.7-5.6-6 .3 2.5-1.8 2.3-1 5zm-36.7-3c-3-3-2.7 3.8 0 0zm2 3c6.3-1.4 2.6 8 2 13 6.5 4 9.5-4.8 13 1 1.3 0 1.4-1.3 3-1-1.4-4-1-8-2-10 .6-1.3 3.6 0 3.8-2-2.5-.3-3.3-2.4-5.7-3-1.6 9-9.6-1.5-14 2zm23.5-1c-1 .2-2.7 0-2.8 1 1 0 2.7.3 2.8-1zm2 2h2.7v-2h-2.8v2zm-125.2 14c1.5-1.7.7-6 1-9-5 1.4-3.4 9.7-5.7 14-2.2-2.8-1.5-5.6 0-9-13.3 7 5.2 21.4 10.3 27.7 0-14 3.3-25 3.7-38.6-7.7.3-4.6 11.8-9.4 15zm96-13c.6.7-.5-.3 0 0zm180.6 66.4c4.7 1.7 6.8.2 12 1 2-19.8-.6-52.6-11.2-68.3 0 25 .3 48.7-1 67.4zM-112 145c.7.7-.3-.4 0 0zm118.6 2c.5 8.8-1 16-1 23.8.2 5.7 0 16 4.8 17.8-2.5-12.3 2.3-24.2 2-41.6-1.8-1-3-2.4-4.8-3 0 1.3-1.3 1.4-1 3zm129.8 1c.3-2.2-.2-3.7-1.8-4 0 2 .6 3.4 1.8 4zM-93 145c-.8.3-2 0-2 1 .7-.2 2 0 2-1zm19.6 2c1.7 0 2.5-.7 3-2-1.6.2-3.4 0-3 2zm-247.4 9c3.7.2 4.8-7.4 2.8-10-1.3 3-2.2 6.3-2.8 10zm254-10c-.7.3-1.8 0-2 1 1-.2 2 0 2-1zm4.7 5c2.8-.7 2.7 1.7 5.6 1-3-2.6-2.5-4-4.7-6 .3 2.4-1.8 2.2-1 5zm73.3 34.7C18 176 27 168.4 32 157c-6-2.4-6 6.7-8.5 5 .2-5 6-10.3 0-13-2.6 4.2-1.2 12.5-5.6 15 .2-6 2.4-14-1-18h-3c1.2 15.3-1.7 26.5-2.7 39.7zM34 151c-.2-2.5-.3-5-3-5-.4 3.2 1.2 4 3 5zm-143-3c.5.7-.5-.4 0 0zm5.5 0c.6.7-.4-.4 0 0zm4.7 0c.7.7-.4-.4 0 0zm22.6 0c-2.3 3.4 3.2-2.4 0 0zm18.8 0c.6.7-.4-.4 0 0zm-45 5c-.3-2.8-1.8-4.2-4.8-4-.2 3 2.4 3.4 4.7 4zm8.3-4c-.8.2-2 0-2 1 .8-.2 2 0 2-1zm21.6 2c1.6 0 2.4-.8 2.8-2-1.5 0-3.3 0-2.8 2zm-26.4-1c-.7.2-1.8 0-1.8 1 .7-.2 1.8 0 1.8-1zm-10.3 5c5.4.7 0-3-2-3-.5 2.2 1.8 1.4 2 3-5 1.3-2.7-4.6-6.7-4-5 3.2-10.8 5.7-11.3 14 9.7.2 18.8-.2 26.4-2-.3-5.5-8-3-8.5-8zm40.3-1c1.8 2.6 8.3-2 3.8-3-.2 2-3.4 1-3.7 3zm-5.6-1c0-1-1.6-1.3-2 0 1.2 0 1.6 1.4 2 0zm-26.3 1c-.8.2-2 0-2 1 .8-.3 2 0 2-1zm35.7 4c3-.4 4.7-1.8 5.8-4-2.8.3-4.7 1.7-5.7 4zm-2.7 5c5.8 3.3 22.5 5 29.2 1-7.6-11.3-20.4-11-29.2-1zm-32-6c-4-1-.2 3 0 0h2v-2c-1.7-.4-2 .7-2 2zm31-2c-.7.2-1.8 0-1.8 1 .7-.3 1.8 0 1.8-1zM-188 184.7c-.5 6.7-1.6 18.2 1.7 20.8 5-2.6 3-10.8 3-17 0-12.4.2-24.2.8-31.6-.2-.8-.8-1.2-2-1-.7 8.4-3 19.2-3.6 28.7zm85.5-28.7c-.8.2-2 0-2 1 .8-.3 2 0 2-1zm12.2 1c-2.4 1-4.5-3-5.6 0 .7.7 5.3 2 5.7 0zm18.8-1c-.7.2-1.8 0-2 1 1-.3 2 0 2-1zm-9.4 3c2.8 0 5-.3 5.8-2-2 .5-6.6-1.7-5.7 2zm12.3 0h2v-2h-2v2zm210 4c-.6-2.6 0-6-3-6 1.3 1.6-.3 6.2 3 6zm-292.8-4c.7 6-4.2 11.3-1 16.8 2.3-5.6 1.7-14.2 5.8-18-2.2-.2-3.7.3-4.8 1zm63 4c2-.7 6.6 1.5 5.7-2-4.6 3.2-2.2-2.6-5.6-3 .6 3 .6 1.8 0 5zm3-3h2.7v-2h-2.8v2zm-242 41.5c0 9 1 18.6 4 24.8-.7-22-.4-50.2 2.7-67.4-4 12-6.6 28.5-6.6 42.5zM-90.2 162c-1.7-2-4.7-2.4-7.5-3 0 3 6 4.8 7.5 3zm20.7-3c-.7 0-2 0-2 1 .8-.3 2 0 2-1zm-11.3 4c3 0 5.8 0 6.7-2-2.5.3-5.2.4-6.6 2zm-131.6 14.7c7.7 8 16.5 15 21.6 25.8 0-4 2.6-10.4 0-14-.3 1.4-1.2 2.2-2.8 2 1.5-2.7 2-11.4-2-11.8-2.5 0 1 6-1.8 6 0-8-2-13.7-6.5-17-2.2 4.3-1 9.8-2 13-4-3-1.5-14.2-1-18.8-1.2-.2-1.3-1.4-2.8-1-2 4-3.4 8.8-2.8 15.7zm141-8c3.6 3 9.3 3.6 14.2 5 1-2.4 1-6 5.7-5-.5 2.6-2.3 3.6-3.8 5 9.3.3 17.4-.8 25.4-2-6-11-28.8.8-38.7-6.8v-1c-3-1.5-9.2-1.7-11.2 1 2.7 1.4 3.8 4.6 8.5 3.8zm-19.6 5c4.8 1.3 5.5 2 11.3 1 0-3 1.2-4.7 2-7-5.6-2.7-14.4-5-13.2 6zm-17 14c4.5 4.5 9.6 8.3 18 9 2.2-5 2-12.6 1.8-20-3-.7-6-1.5-4.7-7-9.4 1.6-15 7-15.2 18zm249.4-17c-.8 6 .5-4 0 0zm-217.4 1c-.6 5-5 6-9.4 7-.8 6.5-2 12.3-2.8 18.8 2.2.7 5.6 5.3 8.5 2-2.4-2.7-5.6-4.6-4.7-11 3.7-4 10.5-4.7 15-7.8 2.7 2.6-1 2.2-.8 5 1.7 2.5 3.7 4.6 8.4 4 2.2-3.5 2-9.4 1-14-4.6-1.4-11.2-5.2-15.2-4zm-49 29.8c9-15.7-6-37-17.8-21.8 4.8-1.3 10.5-.8 14 0-1.5 3.2-2.2 11.4 2 11-.5 1.4 1 5-1 5-1-1.5-.8-3.8-2.8-4 0 5.7-6.4 5-7.5 9.8 3.7 4 9.2 2.5 13.2 0zm4-11c5.6-2.4 8-8.6 9.3-15.7-4.2-1.3-3 3.4-5.6 4 .3-2.3-.2-3.8-2-4-1.5 4.4-3.8-1.8-5.5 1 2.5 3.5 3 9 3.7 14.8zm77-12.8c3.3 6.7 4.4 15.4 6.6 20.8 6-5 13.8-8.5 14-19.8-3.5-5-16-5.4-20.6-1zm185.4 0h1.8v-2h-1.8v2zm-196.7 4c2 4.8 7.7 5.8 6.6 14 2 1.5 7-.2 5.7 4.8-2 2-3.6-1-5.6-2-.3 3.3-4 3-3.7 7 19.2 9.8 12.3-36.2-2.8-23.8zm-90.3 4c3 2.5 7 8.4 2.8 12.8 18.6 1.5 7.7-28-2.8-12.8zm296.4-2c2 .3 3.5-.3 3.7-2-1.6.2-4.7-1-3.7 2zm-230.5 6c4 .8 4.8-1.7 5.7-4-3.2 0-6.3 0-5.6 4zm20.8 11.8c9.6 3.8 11-9.3 5.6-14.8h-5.6c-.8 4.6 3.2 9 0 14.8zm-89.4-8c-1 1.6-3 2-2.8 5 5.7 2.7 9.6-2.2 7.5-9-2.4-1.6-9.8-3.3-13-1 2.7 1.8 6.6 2.3 8.4 5zm163.7 0c7.7 5.2 17 8.8 22.7 16 .4-3.2-1.7-3.6-1-7-2.6-.2-4.7 0-3.7-6-3.7-1.5-.4 4.3-3 4-1.3-1.4-.7-5-.8-8-3.2-.6-1.6 3.7-3.8 4v-6c-3.7-1-.4 5.6-3.7 5v-6c-3-.7-1.3 3.4-3.8 3 0-1.2 0-7-1-4 1.3 4-2.6 2-2 5zm-10.3 14c4.6 2 15 3.2 20.7 1-9-4.4-14-13-20.7-20v19zm8.5-18c.6.8-.4-.3 0 0zm-80 5c-2.2 2-8.4-.2-10.3 2 2.8.8 3 2 1.8 5 6.8 1.4 17.8-1.2 15-10-4.5.5-6.8-1.3-10.3-2-.8 3.8 5 .8 3.7 5zm209 23c3-7 4-22.2 0-28 1 9.8-1.8 20.8 0 28zm-297.4-26c.4 2.8-3.5 1-3.8 3h5.7c.3-2-.2-3-2-3 0-3-3.8 1 0 0zm51.7 27.8c.2-.8-.3-1-1-1 .5-2.8 4.3-5 6.7-3 0-2.7 1.7-4 2-7-3.7 1-6.3 1.7-6.7-2.8-.2-4.8 5.5-3.5 5.6-8-5-.4-6.2-5.2-11.2-6-9.3 11.7-23.3 18.4-28.2 34.8 21-4.7 27 15 44.2 17.8 2.6-11.2.5-24.3-2-35.6-3 5.7.6 15.7-4.6 20.8-.2-4.8 1.7-7.5 1-12.8-3.4-.6-2.3 3.5-5.7 3zm24.5-23.7c0-2.6-1.4-4-3.8-4 .4 2.3.6 4.6 3.8 4zm56.4 0c.6 1.4 1.2 0 0 0v-1c-.5-.6-4.4-2.3-4.7 0 2.3-.4 2 1.8 4.7 1zm-129.8 1c-8-1.3-4 3 0 0zm128 1c-6.2-3.3-9.4 2.6-13.2 5 2 26.5-5 54-6.6 76.2 6.2-9 16-14.2 24.5-20.8-1-8.3-2-16.4-6.6-20.8.5 9.7-3 15.2-5.7 21.8-2.7-20.8 19.7-40.2 7.6-61.5zm43.2 2c0 .8.4 1 1 1 0 1 1.7.8 2.8 1-.2.7.4.8 1 1 4 4.2 8.2 8.4 12.2 12.8-1.4-7.2-6.3-10.6-12.3-13 .2-.7-.3-.8-1-1 0-1-1.6-.7-2.7-1 .2-.7-.4-.8-1-1-.5-1.3-1 .2 0 0zm-188 75.2c1.2-18.4 2-33 1.8-56.5-7.4.6-12.4-1-18 0 .3 19.8 0 39-1 57.5 5.6-.5 13 1 17-1-.6 4.3 7.2-.2 5.7 5-2.2 1.3-7-.2-6.6 4 17 13.8 31.6-4.4 30-24-1.3-19.2 4.3-44 0-57.3-21-9.2-20.4 20.3-23.4 36.6 3 .2 3.6 3 7.5 2 .3-4-.4-9 3-9.8-.5 9.2-1.8 17.5-5.8 22.8 2 9.6 20 11.6 13.2 23.8-3-5.3-3.8 5.2-7.5 0-.2 2.8.8 6.8-2 7-3-3-8 1.5-10.3-1 3-1.3 4.7-3.8 9.4-3 3.8-9.8 3-19.6-4.7-23.8-2.3 6.3-3 14.4-8.3 17.8zm70.4-69.3c3.8 0 5.4-2.3 6.6-5-3.7 0-7 .5-6.6 5zm17 6c-.3-6-3.7-8.8-8.5-10-1.5 4.3 2 11 8.5 10zm12.2-5c6.4 1.5 8 8 14 10 1.7-11.3-9-20-14-10zm18 16.8c4.3 3 5-5 8.3-6 5 5-1 10.8-4.7 13 16.3-1 3-16 8.5-22.8-7 2-11 7.4-12.2 15.8-9.5-7-18.4-19.6-31-19.8 1.5 1.7 2.8 3.6 2.8 7-5.4 1.7-3.4 8.8-5.6 11.8-1.3-3.6-.8-9-4.7-10 2 9.5.2 23 4.7 29.8 8-9.3 29-23.7 35.8-3.8.5-6.2-.5-10.8-2-15zm-224-16.8c6-1.7 13 3.7 16-1-6.3.5-11.7-2.7-16 1zM146 220.3c2-3.8 6-2.4 10.2-2 6.5-6-.4-12.5-9.4-12.8 3.4 6-3 10.8-1 14.8zm-397.2-11.8c.6 1.4 1.2-.2 0 0v-1h-5.6c-1.6 1.6-.8 5.8-1 9 22 1.7 53.4 1 68.7 1v-8c-15-.5-44.8-3.6-60.3 0 12-.8 23.6.5 34 1 7.4.3 17-2.7 22.5 3-13.5 3-26.4 1-47 1-4.6 0-12.3 2.3-15-3-1-3.3 3-1.5 3.6-3zm80 1c1.6-.2 6.5 0 3.8-1-5.2-2-16.2-2-19.8 1 6-.3 12.4.3 16 0zm177.8 4c-3-4-16.2-2.2-20.7-1 5 2 14 .3 20.6 1zm-283.2 1c3.6 1 14.8 2.5 17-1-4.8-.5-12.6-1.7-17 1zM-17 256c1.5-13 2-35.3-1.8-42.6-5 14.5-3.7 29.8 2 42.6zm26.4-34.7c21.2 2 47.3.2 66 2-.4-3.4.6-8-1-10H62c.4 5 11.2-1 10.5 5-9.7 4.3-23.3 1.6-34.8 1-9-.4-20 3-25.4-3 3.7-5 14.7 1 17.8-3-6.8-2-13.5 1-19.6-1-1.6 1.8-.8 6-1 9zm34.8-8c-6-1-2 3 0 0zm13.2 0c-6-1-2 3 0 0zm2.8 0c-.7.3-1.8 0-1.8 1 .7 0 1.8 0 1.8-1zm21.7 0c-6-1-2.2 3 0 0zm4.6 0c-1.4.3-3.5-.3-3.8 1 1.4 0 3.5.4 3.8-1zm-273.8 3c5.7 2.4 15.4.4 22.6 1-2-4.8-19-4-22.6-1zm-138.3 27.8c.6 1.5 1 0 0 0 .5-3.4-3.3-2.3-2.8-5.8 7.8-6-3-16-1-21.8-4.6 2.3-9-1-12.2 2 .3 2.3 1.5 3.7 1 7 3.7 2 6.7-.4 11.2 0 6.6 8.3-4.8 10-10.3 11.8-.5 3 1.7 3.5 1 7 5.6 2.5 8-2 13 0zm50-24.7c-.6 4.8 8.3-.3 9.3 3 4.8 16.6-5.5 37.2 3.7 48.6 0-19.3 1.3-30.5 1-52.6-2.6-1-13-3-14 1zm16.8 0c-1.8 21.2-2 39.3-2 60.5 20.2 1 47.7 3.6 70.7 1 3.5-19.2 2.3-37.6 2.8-60.5-24.8-1.3-51.8-1.8-71.5-1zm266.3-1C0 219-10 217-16 219.4c6 .7 19.2 3 23.6-1zm85.6 2c-3.5-2.3-11-.3-16-1 2 4 14 2.8 16 1zm-106.3 2c-1.6 18.3-1.5 38.2-2 57.5 6.6-.4 12.2.3 17.8 1 1.6-20.7 1.7-37.3 2-58.5-4.5.8-11-.5-18 0zm-262.6 2c2 11.4 3 24 7.5 32.7 2-9 .2-22 .8-32.7-3.2-1.8-4.5 0-8.4 0zm415.8 13c2.2-4 2.4-9.4 1-14-1.3 3-1.6 12.2-1 14zm-132.6-13c.5 21-4.4 45.2 1 61.4 26 .3 38 1.2 66.7 1 2-22.7.5-39.5 2-61.4-25.2.3-48-.2-69.7-1zm71.5 1c0 17.6 0 37-1 50.5 4.3-2 3.7-8.5 4-12 .6-10.2-1-21.8 0-35.5 3.3-1 10.8 2.2 11.2-2-1-4-11.6-2-14-1zm65 24.8c-6 3-8.6 11.6-3.8 18-5 3-10.7 9.3-7.5 17.7-3.4 4.7-8.2 8-6.6 17.8-7.5.7-8.6 7.6-7.4 15-2.2 2-6.2 2-6.6 5.8 7.2-3.2 15.2 7 18-4-2.2-4-10-2.2-9.5-8.8.6-2 2.5-2.7 4.7-3 4.6.8 5.8 4.7 10.3 1 3.5-7.4-6.6-7-6.6-14 .6-2 2.8-2.8 4.6-3.8 3.2 0 3.2 3.2 6.6 3 1-1.4 2.5-2 3.8-3 1.5-5-4-5.5-1-9-3.2-1-8.5-.2-7.5-6 3.4-5.8 16 2 15-9.8-2.5-3.7-9.5-2.6-10.3-8 .4-3 2-4.5 4.7-5 2 3.3 7.6 1.7 10.3 0v-7c-3.8-2.2-11-1-11.3-7 .7-4.7 6.2-4 10.3-2.8.6-1.5 1.5-2.4 2.8-3 1.2-4.4-1.4-5-1.7-8-4.8.8-7.6-.5-10.4-2 3.3 9.3-7.2 16.4-1 26zm-279.5-19.8c-1.5 24.2 12.6 40.3 14.2 64.4 16-.7 9-47.2 3.7-55.4 0-2.7 3-2.2 2.8-5-5-3-12.8-6.6-20.7-4zM82.8 263c6.2-7.8 7.6-20.5 9.4-32.8h-8.4c.4 13.5-.7 21.6-1 32.7zM-72.4 238c1.4 0 .8 2.4 1 4-10 4.4-7.8 17-11.4 28.7-2.3 7.6-8.3 12.2-8.4 19.7 7.7 3 7.6 14.3 17 15.8 2-9.7-7.5-15.2-11.4-21.8 3.5 1 4.3 4.7 8.5 5 1.2-24 29.3-32.7 20.6-57.5-7-3-13.7 1-16 6zm-240 42.6c-3.4-12.7-7-36.4-11.2-48.6 1.7 14.6 3 37.7 11.3 48.6zM137.5 253c3-1.5 4-10.2 2-13.8-1.6 3-4 10.3-2 13.8zm-303 11c2.6-5.6 5.6-10.8 5.7-19-2-.8-2.7-3-5.6-3-1.4 5.2-1.6 17 0 22zM-334 253c-2.6 3-1.3 6.4-1 11 6.2 2 8.7-2 14.2 0-4-2-1-11-4.7-13-1.3 3-5.6 3.4-8.5 2zm311.4 33.7c-4 1.7-9.8 6.8-13 6 2.2-4 6.8-5.3 11.2-7 1.6-5.2 1-14.5 0-19.8-6.5-.2-2.3 10-3.8 12.8-3.8 6.8-16 9-14 18.8 6.8 2.6 9.2-4.7 12-3-.8 5.3-5.6 6.5-12 6 4.8 11 1.6 25.5-2 35.6 12.6-4.6 17-17.7 25.4-26.7 8.5-.7 19.4 1.3 26.4-1-5-4.8-7.5-12-11.3-17.8-8-1.3-15.4 2.4-19-4 7-3.4 7-19.3 4.8-28.7-7.8 5-1.5 18.7-4.6 28.7zM147.7 259c-1-1-2.5-1.3-4.7-1-1.4 3 5 2.6 4.7 1zm-15 12.8c2.5-1.6 3.2-5.2 3.7-9-1.2 0-1.3-1-2.8-1 1.2 4.4-3.6 7.4-1 10zm-462 10c5.3 1 10.5-1.7 14-2-3-2.5-6.4-4.8-4.6-10-5.5 2-14.3 4.2-9.3 12zm284.2 8c6.6-2.6 9.8-8.8 16-12 .3-3-1.8-3.5-1-7-7.7 3.6-14.4 8-15 19zm-144-6c5.4-1.6 17 3.5 17-4-4.5-1.3-18-3.6-17 4zm315 7c1.7-2 6.5-9.4 2-11 .6 4.3-4.6 7.6-2 11zm-431.7 5.8c-2-5-2.2-12.2-6.6-15 2 5 1.3 13.3 6.6 15zm287.8-10c8.5-.3 20 .7 25.6 0-2.5-7.6-18-1.4-24.5-5 .5 2.5-1.6 2.3-1 5zm-237 4c7.8.6 15 .5 15-7h-18.7c.4 3.4 2.7 4.5 3.8 7zm17-6c-1 2-2 4-2.8 6h14c.5-2.5 3-3 3-6-5-1.4-7 .6-14.2 0zm14 6c6 1.6 19.5 3.5 18-6-7.4.6-18-2.4-18 6zm18 0c3.7 1.7 10 .8 15 1-.2-1.8 1-2 1-4-4.2-4.3-15-4-16 3zm-85.6 41.7c.5 1.4 1 0 0 0-6.4-5.5-6.3-17.8-14-21.8 3-11.3-8.2-14.2-8.6-24.8-1.6 4.6-7.6 4.6-10.4 8-.6 3.6 2 3.7 2 7 6 1 7-3.2 13-2 4 8.4-5.7 9.2-8.4 13.8 2.6.5 2.7 3.8 3.8 6 4.8 1 5.6-2.2 8.5-3 4 0 5.6 2.6 6.5 6-2.3 1.3-2.8 4.8-7.5 3.8-1.6 4.8-1.6 5.8 1 10 5-.7 7-4.5 12.2-5 .4 1 .8 1.8 2 2zm102.5-40.6c3.4.7 4.5-1.2 4.6-4-3.6-.8-3.6 2-4.7 4zm21.6 1c-4-1.5-3-4.3-6.6-5-10.2-2-15.2 14-17 19.8h22.6c4.2 10 5.7 23 19.8 22.8-4.3-17 5-29.2 6.6-39.6-7.2-1.8-16.2 2.6-25.4 2zm171.2-2c-.7 8 10 4 16 5 .6-11.2-8.7-4.3-16-5zM-145 305.5c1.3 7.8-3 10-1.7 17.8 1.3 1.6 4.8 1 7.5 1 0 2.4-1.6 3-1 6 29.5-1.2 59.8.8 87.5 4 4.4.4 3.8-8 7.6-5 .3-12.5 3.3-27-5.8-35.7-6.5 1.3-14-.7-22.6 0-1.4 3.6 4.7 6.7 3 14-1.5 0-1.7 1.5-3 2-16.3-1-12-23.6-34.8-18-.2 3.2 1.7 4.2 1 8-5.8 4.5-14 19.8-23.6 11 1.4-4.3 4.2-7 5.7-11-1.2-2-3.8-2-4.8-4 3-2.5 7.8 2.5 6.6-5-15.2-7.3-17 8-21.7 15zm182.7-12c-1.5-5.6-10.4-3.5-17-3.8 0 6.5 13 8.2 17 4zm3.7 2c4-1 12.3 2.4 13.2-2-1-5.8-10-3.3-16-3.8 0 3 2 3.8 2.8 6zm15-3.8c1.2 0 1 1.5 1 3 2.7.5 12.2 3 13.2-1v-3c-5.5 1.6-11.7-3.7-14 1zm-178.7 6c.4 7-5.2 7.6-5.6 13.8 9.7-2.5 19.6-11.5 18-19.8-5.6.4-6.8 5.4-12.3 6zm125-4c-.4-.6-2.7-4-3.6-1 .7.5 3 4 3.8 1zm-252 6c1-2.3 3-3.4 3.8-6-1.4-1.6-5-1-7.6-1 0 3.6 1.4 5.6 3.7 7zm1 3.8c6.2 0 5.5 1.2 12.2 1 2.2-3.5 5.3-6.2 6.5-11-9.7-1.8-17.2-.8-19 10zm16 0c10.7 2 19.5 1.5 21.6-10-12-1.7-19.6 1.3-21.7 10zm18.8 1c5.4-.2 12 .8 16-1-.2-4.8 3.8-5 3.7-10-12-2-18 2.3-19.7 11zm17 0c6 0 5.5-6.6 8.4-10h-4c-.2 4.8-3.8 6-4.6 10zm206 3c-.6-4-3.3-11-6.7-9 3 2.3 3.7 6.8 6.6 9zm5.6 1c5-1.2 7 .3 13.3 0-.7-9.3-11-13.6-20.7-10 2 4 4.4 7.2 7.5 10zm11.4-9c2.2 2 4 4.5 4.7 8 3.6.5 7.8 1.2 14.2 1 .8-9.4-12-14-18.8-9zm17.8-1c.3 5 4 6.4 5.7 10h12c-.4-4.5-2.8-6.8-4.6-10-5.2 1.2-10.2-1.8-13.2 0zm76.3 4c.8-1.7 2.2-2.8 2.8-5-2.5-.5-4.8 4.2-2.8 5zm-55.6 1c1-1.4 2.7-2.4 2.8-5h-6.6c-.3 3.3 1 5 3.7 5zm-362.3 9c-2.7-2.8-3.4-7.7-6.6-10 .6 4.6 2.6 12.6 6.7 10zm56.5 0c2-1 2.8-3 2.8-6h-7.5c1 2.6 1.5 5.6 4.7 6zm2 4c1.2 4 8 2.6 13 3 1.6-4.8 5.5-7 6.6-12-10.5-1.7-21.2 1.3-19.7 9zm15.8 3h15c1.2-5.2 5.3-7 6.7-12-13-2-19.4 2.7-21.7 12zm17 0h5.6c1-4.6 5-6 4.7-12-6.5.7-7 7.7-10.3 12zm223-8c2.2 9 8.5 14 21.6 12-3.7-9.7-7.7-14.7-21.6-12zm18.8 0c-1.2 3.3 5 7.2 5.6 12h9.4c0-2 .8-2.7 2-3 .5-9-10-11.3-17-9zm16 0c0 5.6 7 4.3 7.5 0-3.4-.4-4.5-1.6-7.5 0zm-32 11.8c-1.7-5.5-3.4-11-9.4-11.8-1.7 5.3 1.7 13.2 9.4 11.8zm90.3-3c-.8 0-.6 1.3-.8 2-3 .3 1 4.2 0 0 1 0 .7-1.2 1-2 4 .5 7-5.7 4.6-8.8-1.6 3-3.7 5.3-4.7 9zm-304.7-7c-1 3-5.4 6.4-3.8 9 9.7.4 16.3-.4 23.5 1 7 35 56.8 49 99.8 43.6 32-4 54.5-22 65-41.7h22.5c-.5-14.3-19.7-9-33-10-3.5 10-9.5 17.2-18 22 .5 4 5.8 3.2 5 8.8-3.5 10.4-11.8 3.6-16-1-25.5 14.7-76.4 12-99-3.8-5.4 3.2-11.6 3.7-14-3 5.4-7.6-4.3-14.6-6.6-24.8-10.5 0-15.8-.5-25.4 0zm-82.8 31.8c5.6 10.4 12 20 22.6 25 0 .7.4.8 1 1 1.4 5.4 6.3 12.4 12.2 9.8-5.2-2-7.7-7-12.2-10 .2-.7-.4-.8-1-1-7.7-8-14.2-17.2-22.5-24.7-6.4-10-12.7-20.2-19.8-29.6 3.8 12.8 11.7 21.4 19.8 29.7zm49-23.6h-5.7c-.7 4.3 6.8 6 5.6 0zm-1 8c2.7 2.7 8.8 1.8 14 2 1-4 4.3-5 3.8-10-9.4-1-16.8 0-17.8 8zm16 2c5.2.8 7.8-1 10.3-3 .5-3.3-.6-4.7-1-7-5.6.6-7 5.6-9.3 10zM18.8 336h9.5c-.4-5.3-4.6-6.4-5.7-11-10.2-1.8-7.4 7.5-3.8 11zm14.2 0c5.3 0 8.6-2 10.3-6 0-7.5-10.4-4.2-17-5 1 5 3.8 8 6.7 11zm11.2-10c3.2 3 3-3.5 0 0zm43.3 26c-.8-.3-1 .3-1 1h-1c-1.5 1.7-3.2 3.6-4.6 5.8-1.4.6 0 1.2 0 0 3.4-.3 5.2-2.3 5.6-6 .8.2 1-.3 1-1 9.5-5 13.5-16 19.7-24.7-8.3 6.4-13 16.7-19.8 24.8zm21.7-19c-10 2.3-9 16.5-18 20 6.7-.5 7.4 5.4 14.2 4.8-.2-2.5 1.4-3 2.8-4 0-6.8-5.4-4.7-6.6-11.8 1-1.5 1.4-3.2 3.8-3 4.5.2 5.6 4 11.3 3 6-6.2-3.2-11-7.5-15v6zm-316.2 5c7.8.5 17.3-1 23.6 1 18.7 63.4 158.6 63.4 179.7 2 7.2-.7 17 1.3 22.5-1-1.7-11.3-19.8-10-30-9-21.5 56-151 58.2-165.7-3h-24.3c-1.3 3.7-8 5.7-5.7 10zm47-2c3 .4 3.8 2.7 4.8 5 4-.5 4.5-4.5 5.6-8-3.6-2.6-9 0-10.3 3zm14.2-4c-.7.3-1 1-1 2-.7.3-1.8 0-1.8 1 21 16 74.8 17.8 99.7 4-30.4-2.8-63.7.3-96.8-7zm-153.4 14c2.7 0 4 1.7 3.8 5 3.5-.2 2.7-1.2 5.6 0 .6-5.5 7.6-4.6 10.4-5-5.3-2.4-7-8.4-11.3-12-.8 6.2-7.5 6-8.5 12zm80-9c0-1.3.5-2.2 1-3-1.4.6-5-1-4.8 1 2 0 1.2 2.7 3.8 2zm1 2c3 4.6 12.7 12 19.7 6-2.8-2.4-10.3.2-11.3-4-1.6-3.3.6-3.4 1-7-5.3-.5-9 .5-9.5 5zm239 0c1.8 4.2 0 9.6-6.7 8 5 9 14.2-2.8 18-7-2-2-8.4-3-11.3-1zm-65 8c3-.8 1.8-.8 4.7 0-1.4-3.8 2.6-2 2-5-2-1-3.3-2.6-6.7-2-1.3 1.3-1.3 5.6 0 7zm-152.4-2c.6 3.6 11 2 13.2 1-2.7-2-9.7-3.2-13.2-1zm206 6c-2 2.5-9.4-.8-11.3 2 3 2 2.5 7.3 6.7 7.8 3.4-2.4 8.4-3 9.4-8-1.8-1.2-2-4.2-3.6-6h-14c-.5 6.4 10.6.7 13 4zM-286 359c2 11.3 11.3 2.5 15-1-6 .6-4.8-6.7-8.4-9 .5 6.3-6 5-6.6 10zm82-8h1.7v-2h-1.8v2zm2.7 2c4 2.4 6.8 6 12.2 7 2.3-3 5-5.8 5.6-11-7 .5-16.2-1.7-18 4zm15 7c3 .2 7-.7 8.5 1 1.2-2.2-2.2-6.5-4.7-8-1 2.8-3 4.3-3.8 7zm175 2c3.2-1.7 5.6.7 10.4 0 2-2.8-3-5-2.7-9-5.6-.2-5.7 5.3-7.6 9zm96 0c-7.8.3-9.3 7.3-12.2 13-8 .7-11 6.8-14 12.7-7.3 1.8-13 5-16 11-8 .4-11.7 5-15.2 9.8-3.8 0-7.2.3-8.5 3 8-1.3 6.6 7 12.3 8 2-.6 3-2.2 4.8-3 0-5.2-2-6-2-13 2-.3 2.5-2 4.8-2 2.8 4.3 9.4 10.3 14 4-1.4-3.5-2.8-5.7-4.6-10.8 1.8 0 .7-3.3 2.8-3 7.3-.7 6.2 7.4 14 6 4.7-5.6 1-8.4-.8-14 1.5-1.4 2-4 5.6-3 3-.4.4 5 3.8 4 4.7 1 6.4-1 8.5-3 .8-6-9-9.6-3-14.8 5.8-.2 7 4.4 12.3 5 .6-2.4 3-2.8 3.7-5-3-4-6-8-7.5-11-1.3 1.6-.8 5-2.8 6zm-269 2c6.5 2.7 14.3 9.2 20.6 9-6.4-4-10.3-14.8-20.7-9zm160 11c-1.5.5 0 1 0 0 8-3.5 17.6-5.2 22.4-12-13.2-2.2-16.8 6-22.4 12zM-242 386.6c.4 2 2 2.5 2 5-1.7 3.2-4.4 5.4-4.8 10 1.3 1 3.5.8 3.8 3 5.4-1.3 8-5.4 11.3-9-3 .2-4-1.8-7.6-1-1.5-2.8-1-7.7-4.8-8-1.3-3-5.2-3-9.4-3-.4-11.4-11.8-11.2-16-18.7-.8 4.7-6.4 4.4-6.6 10 1.4.7 3 1.3 3 3.8 7 1.8 7-3.8 11.2-5 2 1.3 4.7 1.6 4.7 5-2.2 5.2-4.6 6-4.6 12 3.6-1 3.3 2.3 5.6 3 5.2-1.2 5.4-7.7 12.2-7zM73.4 367c-4.4 1-6 5-8.5 8 4.2-1.2 7-4 8.4-8 1.4-.7 0-1.3 0 0zM47 388.6c6-.8 13.8-4.7 12.3-10-3.7 3.8-8.5 6.4-12.2 10zm-286-4c0 1 .4 1 1 1 1.3 4.3 4.3 6.8 9.4 7-.2.8.4 1 1 1 0 1 1 .7 1.8 1-.2.8.4 1 1 1 0 1 1 .7 1.8 1 0 4.2 3.5 5 7.6 5v1c.7.6 2.5 1.4 2.8 0-.8-.6-1.5-1-2.8-1-2-2.3-4-4.6-7.6-5 0-1-1-.8-1.8-1 0-1-.4-1-1-1 0-1-1-.8-2-1 .3-1-.2-1-.8-1-3-2.4-5-6-9.4-7 .2-.8-.4-1-1-1-.5-1.4-1 .2 0 0zm284.2 6c-4.4 2.3-9 4.3-12.2 8-9.2 4.8-18.6 9.5-27.3 14.8 10.3-3.7 21.5-6.4 27.3-15 5.4-1 10.3-2.8 12.2-7.8 4 1 .2-3 0 0zm-274.7 21.8c7.3 5.6 9.5-3 15-5 2 1.3 4.8 1.6 4.7 5-2 3.7-3 5.6-2 11 8 3.7 10-5.8 14.2-9h-7.5c-2-5.4-8.4-10.8-15-8-2-2.6-3.2-6-5.8-8 2 6-3.6 7.7-3.7 14zm32-1v1c5.2.4 5.4 6 12.2 5 1 3 5-1 0 0-2.4-3.8-7.3-5-12.3-6-2.4-3.7-8.2-4-11.2-7 1.2 5 5.8 6.4 11.2 7zm181.5 14c-5 8.4-19.5 1.6-25.4 9.8-10-2.6-17.2 3-25.4 3 5 1.5 2.8 10.2 7.6 11.8 7.7-1 1.3-17 13-13.7 2.4 3.2 1.6 9.7 6.7 10 .8-1 2-1.2 3.8-1 1.3-4.5 0-6 0-11 2-1 2.8-3 5.6-3 3.8 2.2 4 8.4 8.4 10 2.3 0 3-1.6 4.7-2 0-5.3-2.2-10.5 1-14 7.4-1 8 5 10.4 9 2.8 1.4 3.3-.5 7.5 0 1.2-6-3-6.3-2-12 1-2 3-3.5 5.7-4 4.3 2 3.5 9.6 10.3 9 7-3.7 0-9 2-14.8-13.8 1.7-19.4 12-34 13zm1-3h7.5c-1-4.4 4.6-1.8 4.7-5-4.8.8-9.2 2-12.2 5zm-179.7 8.8c7.8 4.3 9.3-4.8 14-7 3.6-.3 5.6 1 5.7 4-.8 5-2.2 5.5-1 11 9 3.6 8.3-6.7 14.2-9 10 0-1.2 16.3 10.4 15 3.6-2.5 4.2-8.2 6.5-12-10.2 3-12.8-8.2-26.2-5-2.3-10-16.4-3.4-21.6-9-.5 6.7-5.3 6-2 12zm33-6c.5 1.5 1 0 0 0v-1c-4.2 1-8-3.5-10.4-1 3 1.2 6 2 10.2 2zm127 3c9.2 1.2 14-2.2 18.7-6-6.3 2-14 2.6-18.8 6zm-93.2 6c-7.3-3.5-19.8-6.8-28.2-6 10 1.5 17.2 5.8 28.3 6zm89.5-5c-3.8.3-8.7-.5-9.5 3 4.3.2 7.4-.8 9.5-3 5 1 1-3 0 0zm-27.3 6c4.2 0 7.4-.8 9.4-3-4 .2-8 .2-9.4 3zm-45.2-1c-3.5.6-9.4-1.3-11.3 1 2.8 0 10.4 3.5 11.3-1zm30 2c3.7-.2 8.4.7 9.5-2-2.5.6-10.6.6-9.4 2zm-58.2 12c4.5.7 6.6-1 9.4-2-1.8-7.3 3.3-7.2 5.6-10-7.7.3-10.7 3-16-1 2 4.6-.8 8.2 1 13zm49.8-13c-3 .6-8.7-1.3-10.3 1 2.7 1 9 2 10.3-1zm-32 3c1.7 4.8-.8 8.6 2 12.8 13 2.3 6-10.2 15-11.8 4 2 2.7 9.7 5.6 13h5.7c2.6-4 1.2-12.5 7.4-13 5.2 1 4.4 8.7 6.6 13 2-.8 4.8-1 6.6-2 .7-4.7-1.2-11.7 4.7-13-10 6-19.7-3.5-28.2 4-6.5-9-18.3 1.6-25.3-3z"/><path d="M-121.3-35.2h1.8v4h-1.8v-4zM-48-34.2c3.3-1 2.8 7.2-1 5-.7-3 1.4-2.6 1-5zM-139.2-32.2c2-.5 1.8 1.4 2 3-1-.3-1-1-2-1v-2zM-157-28.3c1.5-.3 1.7.8 1.8 2-.8-.2-1 .4-1 1-1-.2-.7-1.8-1-3zM-175-23.3c3-.2 3.7 4.6 0 4v-4zM6.6-18.4c2.4.2.3 3.4 0 4-.8-.2-1-1-2-1v-2c1.2.2 1.8-.2 2-1zM-192-17.4c1.3.4 2 1.3 2 3-1.5.3-1.6-1-2.8-1 0-.8 1-1 1-2zM-87.5-15.4c2.7-3-2.7 2.8 0 0zM-84.7-16.4h2v2h-2v-2zM-208.8-9.5c1 .5 2 1.3 1.8 3-1.5.3-1.6-1-2.8-1 .2-.8 1-1 1-2zM-98.8-6.5c.3-1.3 2.4-.8 3.8-1 .3 1.6-1 1.7-1 3h-1.8c0-1.2-.2-1.8-1-2zM-73.4-4.5c-3.4-.3-8.3.8-10.3-1 1-3.6 10-2.2 10.3 1zM-97-3.5c0 3.7-3.2 2.8-5.5 2 0-2.6 3-2 5.6-2zM-69.6-1.5c-3 3.4-8-.2-14 1 2.6-4.3 9.5-2.2 14-1zM39.5-3.5c.7 2.7-1.8 2-1.8 4-2.3-.7-.5-5 1.8-4zM-225.8-.6c1.2.5 2 1.3 2 3-1.3-.4-2-1.2-2-3zM-100.6 1.4c1.3 3-7 3-5.7 0 .7-.7 5.3-2.2 5.7 0zM-69.6 4.4c-4-.4-9.7 1-12.2-1 1.6-2 12.3-4.3 12.2 1zM-187.2 11.3c-4-1-3.4-5.3-8.5-3-.4 4.5 3.4 4.5 3.8 8 1.2-.2 1-1.8 1-3 4 .3 4.3 4.2 4.7 8-.8-.8-2-1-3.7-1 2 2.7 2 8 6.6 8 3.2-3 0-5.5 0-10 4 1.3 5.8 5 6.5 10-4.7 1.4-7.8 4.8-13 5.8-.2-4.3-2-7-3.8-9.8-5 0-8.7 10.7-2.8 13-.2 3.3-2.8 4.2-5.7 4.8-1.6-11.3 3.8-26.2-4.7-28.7 3.5-5 19-14.7 19.8-2zm-12.2 13c1.7 0 2-1.2 3.7-1-.4-4.3-1-8-4.7-9-.7 4.4 1.3 6 1 10zM55.5 6.4c.3 2.6-.3 4.2-2.8 4-.3-2.6.4-4.3 2.8-4zM-240.8 10.3h2v2h-2v-2zM-80 16.3c8.6-1.4 25-2.6 29.2 4-9.5-1.6-20-2-29-4zM-113.8 16.3c0 5.2-8.2 2-11.3 4 .6-4.6 6-4 11.2-4zM36.7 21.2c0 4-2 6-5.6 6-.4-3 1.8-3.5 1-7-7.6 0-1.2 9.2-2.8 15-2.8 8-11.8 9.5-17 3 1-3.8 1.6-7.8 5.7-8 .6 3.7-1.2 4.7-1 8 1-.3 1.6 0 1.8 1 9-1.4-3-29.8 14.2-23 1 .5.8 4.5 3.7 5zM67.8 16.3c4.2-.2.5 4 0 5-2.8-1 .5-3.2 0-5zM-215.4 27.2c-3.7.2-3.5-3.6-7.6-3 4.5 7.8 9 15.6 16 20.8-.2 3.8-4.8 2.8-5.6 6-3.7-8.7-10-14.6-15-21.8-4.2 1.3-.2 5 0 8-3.5-.5-4.4-3.5-5.7-6 3-6.3 15.5-17 18-4zM-255 21.2c1.4 1 3.7.8 3 4-2.6.3-3.2-1.4-3-4zM-103.5 24.2c3 0 3.3 2.6 3.8 5-1 .8-2.5 1.3-4.7 1 0-2.5-.2-4.8 1-6zM-68.7 25.2c3.4-.2 5 1.4 4.7 5-1 1-3.3 1-5.6 1-.4-4-1-3.6 1-6zM45.2 26.2c3.4.4 4.7 3 6.6 5-5.8 7-13.5 12.2-17 21.7-3.5 0-5.4-1.7-6.5-4 6.3-7 13.7-12.6 17-22.8zM-138.3 29.2h3.8c1.3 1.3 1.3 5.6 0 7h-3.8c-1.8-2-.4-4.8 0-7zM82 29.2c2.2.6.4 5-2 4-.7-2.8 2-2 2-4zM-33.8 33c3 .3 4 2.4 3.7 6-5 2.7-7.3-3-3.8-6zM-270 35c0-2.4 3.2-.2 3.8 0-.2 2.6-3.2.4-3.8 0zM-237 44c-3 0-7.6-3-8.5 1 6.3 6.2 26.2 0 19.7 17.8-2.5.3-4.4 1.3-5.6 3-3.2-1.3-6.3-2.6-6.6-7 3.4.3 6.8 4 10.3 1-1.3-12-24 1.8-21.6-15.8 3.3-4.4 10.8-9 12.2 0zM67.8 47c-.6 3-2 5-5.7 5-.6-4 3.2-3.5 2-8-9.4 2.4-15.7 8-18 18 5.3-.7 8-3.7 8.6-9 3 .5 4.6 2.3 5.6 5-2 4-6.8 5.3-9.4 8.8-3.4-1-5.6-3.3-8.4-5C41.2 48 60.8 31.2 67.8 47zM94 43c2.4.7.6 5-1.8 4 .5-1.5 1.4-2.5 2-4zM-282.2 48c1.2.3 1.5 1.7 2.8 2-.4 2.4-3.7 0-2.8-2zM-98.8 53c5.3 4.6 10-2.7 13.2 2 0 1.2-1.2 1.3-1 3-4-1-17.5 5.3-12.2-5zM-259.6 54c5.3 8.8 20 12 17.8 25.7-12 9.2-17.2-9.5-28.2-11 0-4 2.5-5.8 5.6-6.8 4.6 7.3 11 12.8 19 16.7 1-.3.5-2 1.7-2-4-8.3-10.4-14-18.8-17.8 1-2 2.3-3 3-5zM-75.2 62.8c-.4-3-3-3.6-4.7-5 1-.8.3-3.6 3-3 2 2.8 6 5.3 8.3 5 .7 5.7-3.4 3.4-6.5 3zM76.2 56c3.7.3 4.4 4 6.6 6-8 5-16.3 9.7-20.7 18.7-3-1-5.4-2.8-5.5-7 7.2-5.2 15.8-9 19.7-17.8zM105.4 57c2.3.3 0 3.7-2 3-.4-2.3 2-1.5 2-3zM-107.2 58c3 0 2.5 3.8 3.7 5.8-2.3 1.3-4-3-4.7 0 3.3 1.3-2 7.7-2.8 11-.6-1.4-3.6-.2-3.8-2 .4-2.6.5-5.5 2-7 1.3-.2 3.4.4 3.7-1-4.7-.7 2.2-4 1.8-7zM-102.5 60c-.4-.5.6.5 0 0zM-66.8 62.8c3.4 1.6-.4 3.6 0 6-2.5.3-3-1.4-2.8-4 .8-.8 2.6-.6 2.8-2zM-294.5 64.8c-.3-2 4.3-1.4 3 1h-2c.2-.8-.4-1-1-1zM-150.5 68.8c-2 3-5.2 5-10.4 5 3-2.4 5.8-4.7 10.5-5zM-65 69.8c1.2-4 1.2 4 0 0zM88.5 69.8c4-.2 3.3 4.4 5.6 6-7.2 5-14.8 10-21.5 15.8 2.5 4.2 5.3-1.2 9.4-1 1.6 3.3-4.3 5.7-7.6 7-3-3.2-6.8-5.6-7.6-11 8.5-4.2 17.3-8.2 21.7-16.8z"/><path d="M-61 70.8c-.2 1.4-.3 2.8.8 3-1 3.3-1.7.4-4.7 1v-3c1.8 0 2-1.3 4-1zM115.8 71.8c4-.4 1.3 5.6-2 4 0-2 2.6-1.3 2-4zM-114.8 78.7c-.4-.4.7.6 0 0zM-272 85.6c-3.8-.3-5.4-5-8.3-1 3.7 8 10.8 12.4 20.7 14-.3-5.8-5.2-6.5-9.5-8 0-3 2-4 2.8-6 4.7 2 7 6.6 11.3 9 .5 19-28.5 5.8-28.2-6 .2-4 6-14.2 11.3-2zM-64 79.7c2.2-.3 3.7 0 4.8 1 .5 3.8-1.7 4.8-1 9-2.8-1-4.6-1.5-5.6-2 0-3.8 1.3-2.6 3.7-2 .4-3.2-3-2.3-2-6zM-112 80.7c0 6.4 2 13 6.6 15.8 0 2.5-1.3 4-3.7 4 0-3.3-1.7-5-4.8-5 .4-5.6 0-9-2.8-12.8.8-1.5 2.3-2.2 4.7-2zM-67.7 93.5c.5-1.4 1.4-2.4 2-4 1.3.6 2.2 1.6 3.6 2-1.3 1.6-3.4 4.6-5.7 2zM126 89.6c2.4.4.2 3.8-1.8 3-.5-2.2 1.8-1.5 2-3zM-144 93.5c-2.6 1-2.4-1.3-4.6-1 0-3 5.6-2.6 4.7 1zM102.6 90.6c2.3 1.8 4.5 3.8 4.7 8-9.8.5-14.5 6.5-21.7 9.8 2 3 6-.3 8.5 0-3.2 9.2-13.8 5.3-16-2 7.2-6.4 19.3-7.5 24.6-15.8zM-30 92.6c1-.2 1.6.2 1.8 1-2 7.5-5.3 13.5-12.2 15.8C-36 105-33.8 98-30 92.6zM-104.4 93.5c1.6 1.3 3.7 2 3.8 5-1.7-1.3-3.7-2-3.8-5z"/><path d="M-67.7 93.5c-.7 3.4 3.8 1.3 2.8 5h-3.7c.2-.8-.3-1-1-1 .3-1.7-.8-5 2-4zM-313.3 96.5c2.5-.3 4.7-.3 3.8 3-2.5.3-4-.4-3.8-3z"/><path d="M-69.6 97.5c-.2 1 .4 1 1 1 .2 1.3 1.3 2 1 4-3 .4-3.8-1.4-5.8-2-.6-2.7 2-2 2-4 1 0 1 .8 1.8 1zM-291.6 99.5c7 6.5 18.8 8 24.4 15.8 0 5.3-4.3 6-6.6 9-8-2.7-14-7.6-23.5-9-.5-3.5 1-4.7 2-7 7.4 3.8 14.8 7.6 22.5 11 .7-.2 1-1 2-1-2.7-9.2-16-11-22.7-13-.3-2.8 2-3 2-5.8zM-28.2 101.5c3.7 5.6-5 6.6-5.6 11-5-4 4.6-7 5.6-11zM-161 104.4c3.7 3.2 1.8 12 3 18-4.7-2.4-2.6-14-3-18zM135.5 106.4c-.2 1.8-1.6 2.3-3.8 2 .3-1.7 1.7-2.3 3.8-2zM-25.4 108.4c1-.2 1.7.2 2 1-1.3 5.3-4.5 8.5-5.7 14-2.5-5 1.6-11.5 3.6-15zM112 108.4c2.2 1 3 3.4 2.8 7-9 1.5-15.6 6-22.6 9.8 8 7.4 21.7-10 26.4-3-8 3.7-16 7.7-26.4 9-12-13.4 13.4-16 19.8-22.8zM-322.7 112.4c3-.5 3.7 1.4 5.7 2-.6 3.5-6 1.3-5.7-2zM-19.7 113.4c2.8 8.7-1.3 27-4.7 35.6.3-13.2.7-26.3 4.7-35.6zM-81 118.3c0 1.8-1.5 2.3-3.7 2-1-3 2-1.8 3.8-2zM-81.8 124.3c-2 .4-2.5-.7-3.8-1 .2-3 4.5-2.4 3.8 1zM138.3 124.3c3-3.7 3.2 3 0 0zM-87.5 126.2c2-.4 1.4 4.5-1 3v-2c1 .2 1-.4 1-1zM-274.7 132.2c-.2 3-2 4.4-2.8 7-2.8-1.6-6.5-3.4-9.4-2-1 6.8 3.5 7.5 7.6 8.8-.5 1.8-.5 4.2-2 5-7.2-7.2-18.3-10.3-23.4-19.8 9.2-2.6 22.8 1.4 30 1zm-15 8c0-1.5.4-2.3 1-3-1-1-6-2.2-6.7 0 2.4.3 2.8 3 5.6 3zM-85.6 131.2c-.3 2.3-2.5 2.3-3.8 1 .3-2.3 2.6-2.3 3.8-1zM-328.3 132.2c2.7-.2 5 0 4.7 3-2.7 0-5.2 0-4.7-3zM121.4 132.2c3 0 2.8 3 2.8 6-5.5 1.7-9 5.6-14 7.8 6 4.4 11-.5 18.7 3-.6 3.2 1.7 3 0 5-10.3-2.8-19.5 3-29.2 4 .7-3-1.4-2.6-1-5 6 .8 9.3-1.5 14-2-3.3-1.7-8-2-13-2 1.3-3.8 5.5-4.7 8.4-7-3-2-9.8.3-10.3 4-2-1-3-3-3-6 9.7-1.6 19.8-3 26.4-7.8zM18.8 141c0-.5.8-1 1 0h-1zM146 140h1.7c.5 2.2-1.3 2-2.8 2 0-.7 1-1 1-2zM-328.3 151c-.3 1.3-2.4.8-3.8 1 .2-2.3 2.4-2.3 3.7-1zM-113 157c-.7 1.7-1.6 3.4-4.6 3-.5-1-1-1.7-1-3 1.3-1.4 4.5-1.4 5.7 0zM-295.4 165c.4 3.6-4.3 5-6.6 2.8-.3-5.3 4.2-5.2 6.6-3zM-336 166c0-1.7 5.2-1.5 3 .8.3-.3-3-1-3-1zM-104.4 166h2.8v2.8h-2.8v-3zM-68.7 166c0 1.8 2.6 1 2 3.8h-4.8c-.2-2.6-.3-5 2.8-4zM-113.8 170.8h-5.7c0-3 6.5-4.4 5.7 0zM115.8 167.8c2.3 0 4.5 0 5.6 1-.3 2.3-1 4.3-2.8 5-2.4 0-3.7-1.5-3.8-4 1 0 .7-1.2 1-2zM-86.5 168.8c3 .2 4 2.3 3.7 6-1-1-2.5-1.3-4.7-1-.8-2.8 1.4-2.6 1-5zM-38.5 168.8v4h-4.8v-3c1-.8 2.6-1.3 4.8-1zM-334 181.7c-2.8 3.7-3-3 0 0zM133.6 184.7c.6 2.2 2 6 0 8-9.5-2-17.3-1.2-25.4 1 6.4 5.8 21 2.7 26.4 3v5.8c-7.6-4.3-24 1-29.2-6-2-16 20-6.7 28.2-11.8zM-49 185.7c3.6-.4 4 2.4 4.8 5-2 1.7-5.7-.6-4.7-5zM-306.7 192.6c-1 2.3-3.2 3.2-6.6 3v4c1 2.2 6 .3 8.5 1-.4-2-3.7-1-2.8-4h8.4c2 2-.4 2-1 4h8.6c0-6.4-6.6-5.7-10.4-8 2-4 11.5-1.7 14 0-.3 6.2-1 7.2-.8 15-2 1.5-4.6-2.7-9.4-1-4.8 5 2 9.6 5.6 11.8 2-.3 2-2.7 2.8-4 3.3.5 1.4 6.5 2 10-9.8-3.7-17-14-29.2-12 .3-10.5.6-10.2 0-19.8 2.7-2.8 7-1.6 10.3 0zm4.7 18.8v-5c-3.2.7-8.7-1.2-10.3 1 4.2.5 5.5 4 10.3 4zM156.2 191.6c0 2.7-4.4 2.4-5.6 1 .8-2 4-2.7 5.6-1zM-337.7 200.5h2.8v2h-2.7v-2zM-153.3 205.5c3.5-1 3.3 4.4 1.8 6-2.4-.2-1.8-3.4-1.8-6zM-33.8 206.5c1.5-.3 1.6 1 2.8 1 .8 2.8-1.3 2.5-1 5-2.4-.2-1.8-3.4-1.8-6zM105.4 206.5c10 3.2 20.4 3.6 29.2 0 0 9-7.4 10-14 12 1 3.6 9.4 1.6 12 .8 1.2 1.2 1 3.5 1 6-8.7-2.4-19.6-2.5-28.2-5 3.8-3.2 9.5-4.5 14-7-4-2-9-1.8-14-1-1-3 0-2 0-5.8zM-145.8 207.5c1.5-.3 1.6 1 2.8 1 .8 2.7-1.3 2.5-1 5-2.2-.6-3.8-4-1.8-6zM-51.7 224.3c1-8.4 5.2-13.7 12.2-15.8-5.6 6.8 7.8 22-8.5 22.7 3.6-2 9.7-7.8 4.7-12.8-3.4 1-4 9-8.4 6zM-27.3 210.4c4-1 4 7 0 6-1.8-2-.2-3.7 0-6zM156.2 211.4c-.2 1.8-1.6 2.3-3.8 2-.4-3 2.4-3.5 3.8-2zM-150.5 217.4c1.5-.3 1.6 1 2.8 1 0 2.5-.2 5-2.8 5 0-3.8-1-3 0-6zM-104.4 219.3c-.2 1 .4 1 1 1 1 8-8.5-2-1-1zM-33.8 219.3c2.3.2 3.6 1.5 3.7 4-1 .4-1.8 1-2 2-2-.8-3.6-4-1.8-6zM-336 221.3c-.3-.4.8.7 0 0zM-159 221.3c4.7-1 4.7 6 0 5v-5zM-111 221.3c2.7.5 4.3 2 4.7 5-2.6-.6-5.3-1-4.7-5zM-171.2 224.3c0 19.2 0 36.7-1 50.5-3.5 1.8-8 .2-11.2-1-.6-19.6 1.4-30.5 1-49.5 2-1.6 9-1.6 11.2 0zm-9.4 1c-.3 14.8-1.4 29.7-1 47.5h7.6c1.8-11.8.5-31.3 1-47.5h-7.6zM-113.8 225.3c4-.2 5.8 1.8 5.6 6-2.6-1.2-5.6-2-5.6-6zM-197.6 228.3c3 11.2.7 31 0 44.5-18.8 0-38 .4-54.5-2 .3-14.4-1.4-31 1.8-42.5 14.7-3.8 34.5 1 52.6 0zm-51.7 2c1.2 13.5-2.8 26.6 0 38.6 17.6-1.5 35.4 2.2 50.8 0-.3-12.7.5-28.2 0-37.8-16.7-1.8-37.3-1-50.8-1zM1 226.3c2.4 16.6-.6 36.3-1 50.5-4.3.4-8 .7-12.2-1 2.5-14.5-.6-35 2-49.5H1zm-10.4 48.5H-1c-.3-10.6-.2-30.8 1-45.5-1.5-1.7-5.5-.8-8.4-1 0 16-1.7 30-1 46.5zM-145.8 227.3c1.6 1 3.3 1.8 2.8 5-3.8 1-4.6-3-2.8-5zM-286 237.2c-7.5-3.7-20.6 1.4-28.2 4 0-4.2-1.7-5.6 0-9 6.8 7.3 30.5-13.7 28.2 5zM118.6 229.3c-.4-.5.6.6 0 0zM104.5 230.2c7.5 3.2 19.6 5 27.2 5 .5 3-1.7 3.5-1 7-9.4-1.7-16.8-5.4-28-5-.7-3.6.5-5.3 1.8-7zM68.7 232.2c-.6 14.6 1.2 31.7-1 44.6-17.5-.6-37.5 1.2-53.6-1 1.3-14-2.2-32.8 2-43.6 18.2-2.3 31.6.7 52.7 0zm-51.7 2c.4 16.6-1 26.4 0 39.6 16.6-1 35 1.5 49 0 2-12.7 0-26.2.8-38.6-17.6.7-33-1-49.8-1zM150.6 232.2c-.2-2 3.3-.4 4.7-1 .5 4-4 3.4-4.7 1zM-32 232.2h3.8c.3 2.3-.2 3.8-1 5-3 .4-3-2-2.8-5z"/><path d="M-244.6 233.2c5-.8 4.8 3.5 5.7 7 8.4 8 30 6.7 32-6 2.2-.3 3.7.2 4.7 1-4 10 .4 20.7-1.8 30.7-7.8-3-2.8-15-3-24-5.5 4-9.7 9-17 11-6.2-2.6-12-5.7-16-11-2.2 8 2.4 19-3.7 24-5.4-3.8-1-15.3-1-23 0-4.5-2.7-7.6 0-9.8zm1 4h1.8v-2h-2v2zm39.5-1c-5-1-1.2 3 0 0zM-160 234.2h3v4c-3.2 1-3.2-1.4-3-4zM-336 238.2c2-.5 2.6.6 4 1-.7 1.3-2 1.8-4 2v-3zM-151.4 238.2c4.2.4 3.8 4.5 1.8 7-1.5-1.6-4-4.5-1.8-7zM24.5 238.2c1.6 18 32 15.5 32 0h4.7c-3 7.4 4 27.7-3.8 32.7-3-5.6-1.4-14-1-21-9 6.8-25.7 10.3-31-3-3.7 7.5 4 21-5.6 22 3.5-9.8-4-28.8 4.7-30.8zM-37.6 244c3.6-.7 3.6 5 0 4v-4zM-308.6 265c-.6-3.7-2-7-1-10 2.4-1 4.2-2.3 7.6-2 1 4.8-3.6 3.5-4.7 6 4.8 6.5 17.5-.3 21.6-4-2.2-4-9.3.7-11.3 3-2-1.7-2.6-4.6-3-8 4.5-1.3 9.7-1.7 14.2-3 11.8 14.5-10.4 24.4-23.6 18zM127 247c3.3.6 1.5 5.8 1 8-2.3 0-10-2-16-1 2.3 5.2 14 5.7 13.2 11-5.7 1.3-18-10-25.4-14 3.7-7 20.5 0 27.2-4zM-146.7 249c4-.3 3.6 2.5 2.8 5-3 .5-3-2-2.7-5zM147.7 249c1.4.6 5-1 4.7 1 1 3.4-6.8 3-4.7-1zM-153.3 252c4-1 4 7 0 6 0-3.7-1-2.8 0-6zM-26.3 253h2.8c1.3 1.3 1.3 4.7 0 6-3.4.5-3-3-2.8-6zM-331.2 259c2.4-4 1.4 3.2 0 0zM-145.8 260h2.8v5c-3 .4-3-2.2-2.8-5zM-35.7 265c-3 .4-4.2-1-3.8-4 3-2.7 5.7 1 3.8 4zM95 265c8.7 3.3 16.7 7.5 26.4 9.8-.2 6-2.6 9.8-4.7 14-3-.5-6-1-6.6-4 3-.8 6-1.2 7.6-3-1-3.2-5.7-2.6-7.5-5-2.8 1.2 1.5 3.8-.8 5-3 0-3.2-2.7-6.6-2-1-3 1.5-2.4 2-4-2.2-2.2-5.3-3-9.6-3-.5 5.2 5.8 3.3 4.8 9-3.5-.7-5.6-2.8-8.5-4-.2-6 3-8 3.7-13zM-279.4 268c1.2.2 1.5 1.6 2.8 2 0 7-8.5 5.5-10.3 10.8 3 4.6 9.2-2.3 12.3-4 .7 3 3.3 3.8 2.8 8-10.5 1-18.3 5-24.3 10.8-5-6-7.7-13.6-2-18.8 10.7 1.6 13-5.5 19-9zm-19.8 18.7c3.3 2 9.6 0 10.4-4-4-2.7-9.6.2-10.4 4zM145 268c.7.4 1.4 1 2.7 1-.5 2-1.4 2-2.8 1v-2zM-324.6 276.8c-.4 1.2-1.2 2-2.8 2-.4-2 1.4-2 2.8-2zM137.4 286.7c2.4-.3 4 .4 3.8 3-2.5.2-4.8.3-3.8-3zM86.6 287.7c7 5.7 16 9.4 24.4 14-.5 11-14.4 17.8-17.8 4.8-5 2-8.5-3.6-14-4-.4-2.8 1.6-3.4 2.7-5 5.8-.5 5.7 5.2 12 4 0-5.8-6-5.3-10.2-7-.5-3.6 1.8-4.5 2.8-6.8zm19.7 18.8c-2-2.4-4.5-4.5-9.4-4-1.3 5.5 7.2 8.4 9.3 4zM-319 295.6c3.2-2.4-2.2 3.3 0 0zM-264.4 297.6c1.7 15.4-12.5 19-24.4 16.8-6.6-13 14.3-24.6 24.4-16.8zm-23.5 14c10.8-.4 18.5-4 20.8-13-8.3 2.7-17 5.2-20.7 13zM130.8 304.5c2.5-.2 4 .4 3.8 3-2.5.3-4-.4-3.8-3zM-311.4 312.5c2.3-4 1.4 3.2 0 0zM82 317.4c-4.5.7-4.3-3.5-9.5-2-.5 9 13 3.3 19.7 5 4.8 4.6 2.8 14.8-3.7 15.8-1.2-2.4-5.8-1.2-4.7-6 3.8-1 6 2.5 8.4 0-3.8-8.6-22.2 2.5-24.4-10.8 0-8 13-11.4 14-2zM-255 313.4c2 4.2 5.5 6.8 6.6 12-8.3 3.3-15 8.6-20.7 14.8-5.6-1.7-8.2-6.7-9.5-13 1.7-.8 2.4-2.7 5.7-2 1 3.8-2.4 3-2 6 .4 1.4 1.8 1.6 2 3 3.5-.2 4-3.7 7.5-4 .2-2.4-1.4-3-2.8-4 1-2.3 3.7-3 6.5-3.8.4 2-.7 2.6-1 4 3.6-1 6.4-2.6 8.5-5-1.7-4-5.2-2.3-9.4-2 1-4 3.6-6 8.5-6zM-88.4 318.4c-8 2.8-25 5-31-1 9 2.3 21-2.7 31 1zM-50.8 330.3c-5.4-5.2-14.7-6.3-21.6-10 7.4-4.5 18.6 3.4 21.6 10zM121.4 321.4c-.3-1.8 5.3-1.8 3.8 1-2 .4-2.5-.7-3.8-1zM-303 329.3c2.4-4 1.4 3.3 0 0zM60.2 328.3C68 333.8 74 341 82.8 345c0 4.2-4.4 3.4-4.7 7-5.6-7.4-12.6-13.6-21.5-17.8 0-3.3 2.2-4.3 3.7-6zM-254 360c-5.3-4.4-7.2-11.4 2-13 1 4.5-3.3 3.4-3 7 6.6 4.3 18.3-7.4 17-14.8-4.2 1.6-7.6 4-8.5 9-4.4 0-5.7-3.3-6.6-7 7.5-6 19.5-9.2 20.6 2 1 8.4-10.7 17.2-21.6 16.8zM112 335.2c2.4.2 3.6 1.5 3.7 4-2.3 0-3.6-1.4-3.7-4zM64 361c3-2.5-3.8-3.2-2-8 4 .7 5.5 3.6 6.7 7-2.8 4-6.6 7-10.3 10-4.2-.3-6.8-2.3-7.6-6 2.8-2.6 3.6 2.8 7.6 2-4-8-10-13.3-17-18 7.4-14.3 13.3 11 22.6 13zM-289.8 343.2c.3 2.6-1.3 3.2-3.7 3-.3-2.7 1.3-3.3 3.7-3zM99.8 352c.5-2.3 4.7-.4 3.7 2-2.5.8-2-2-3.7-2zM36.7 353c-1.3 13 12 20 6.6 30.8-10-4-13.5-15-25.4-17-.5-4.6 5-3 6.5-5.8 2.2 1.6 3.4 4.4 5.6 6 6 1 6.7-10.3 0-9 .8-3.3 2.5-5.4 6.7-5zm2.8 21c0-4-1-6.8-5.6-6 0 3.8 3 4.7 5.5 6zM-278.5 358c.6 2.2-1.8 1.4-1.8 3-2.4-.4 0-3.8 1.8-3zM87.5 365c3-.5 4.2.8 3.8 4-2.4-.2-3.7-1.5-3.8-4zM-223 368c2.3 1 4.7 1.7 3.8 6-2.7.8-3 .8-5.6 0-.6-3.3.2-5 1.8-6zM-267.2 371c2.4 0 .3 3.3 0 4-2.8-.8 1-2.3 0-4zM11.3 371c1.7 9.4 7.5 14.5 11.3 21.7 4-1.3.3-5.4 1-9 2.5 2 5 4 5.6 8-3.6 4.2-10.4 5-14 9-3.4-1-4.8-3.7-4.8-8 3.6-.8 3 3 5.6 3-1.3-5.7-6.8-15.2-12.2-20 .8-3.3 3.4-4.8 7.5-4.8zM-181.6 377.8c0 5-3.7 6-4.7 10-.4 3 2.4 2.7 3.8 4 5-2 8-5 7.5-10 3.8 0 4.3 3.5 7.6 4-7.5 5.8-20 11-20.7 20.8-8-1.3-13-5.7-19-9 1-3 1-7 4.7-7-.3 4 0 7.4 3 8 3.2 0 2.6-4.3 4.6-6-.2-1.2-2.8-1.2-3 0-2.5-2.8 1.3-7.2 3-8.8 1.2.6 1.7 2 2 4 2.3-2.5 3.6-6 5.5-9 0-2.5-3.2-2-5.6-2-2.2 1.7-2.3 5.6-6.6 5 1-13 11-9 17.8-4zm-11.2 22.8c3.8-1.2 6.4-3.8 8.4-7-4.8-3.3-7.5 3-8.4 7zM75.3 378.8c2-.2 3 .8 2.8 3-2 .2-3-.8-2.7-3zM-7.5 380.8c2 10.3 7.2 17.5 12.2 24.8-2.6 1-5.4 2.2-8.4 3 .7-9.4-10-18.7-10.4-26.8 3 .5 3.2-1.8 6.5-1zM-255 386.7c1.7-.3 1.8.8 2 2-1-.2-1 .4-1 1-1 0-.8-1.8-1-3zM-161 387.7c4-1 3.8 2 6.7 2-2.7 8.8-8.4 18.3-8.4 26.8-3.4 0-5.5-1.6-8.5-2 4.3-8 8.7-16 10.3-26.8zM-23.5 387.7c-.2 3.6 1.7 4.8 2 8-4.7.5-4.3-4.3-8.6-4-.8.2-1 1-2 1 1 10.8 17 5.8 15 19.8-2.5 3.2-7.7 3.6-12 5-.3-1.6-3.3-5.2-1-6 .4-4.3 3.8 3.2 7.4 2-2.3-9-18.4-8-12.2-22.8 4.4-.4 6-3.7 11.3-3zM61.2 390.7c1.6.2 2 1.7 2 4-1.8-.3-2.3-1.7-2-4zM-145 394.7c25.8-5.4 11.6 38.6-4.6 26.7 1-3 0-8 3.8-8 1.8 1.6-1.4 4 1 6 7.5-2 7.6-11.7 7.5-21.8-5.2.6-2.3 9.6-4.7 13-3.3.7-3.7-1.6-6.6-1 .8-5.5 3.7-8.7 3.7-15zM-240 401.6c-3.2-4.6 5-4 0 0zM-122.3 397.6c6-.2 11.4 0 15 2-2.4 7.8-4.6 21.5-2.8 27.8-7.3-.5-10.3.4-15-2 0-3 .8-5.6 1.8-8 2.4.8 1 5.7 3.7 6 3.8.6 2.7-3.8 3-7-.5-1.3-1.8 0-2 1-2.2-1-.4-6.2-1-9 2-2 2 .6 3.8 1 1.5-1.3.8-5 1-7.8-6.5-1.8-3.7 6-8.5 6-.8-4.5 1.2-6 1-10zM-97 398.6c7 0 3.4 10.5 6.7 14 3.6-1.6 2-11 0-13 2.3-.8 5-1.3 8.5-1-1.7 8.8-1.6 22.3 1 29.7h-15c-1-1.3-1.7-3-3-4 3.3-11-.2-18 2-25.7zm4 25.8h4.6v-9c-5-.6-5 4-4.7 9zM46 403.6c.5-1.2 2.6-.8 3 0 .8 2-3.5 2.3-3 0zM-56.4 408.5v4c-1.5-.3-1.6 1-2.8 1-2.7-.2-4-1.7-3.8-5 1.2-1.4 5.3-1.4 6.6 0zM-224.8 410.5c1-4 1 4 0 0zM29.2 411.5c2-.5 1.3 2 2.8 2-.4 2.5-3.6 0-2.8-2zM-208 418.4c1.8-.3 1.8 5.6-.8 4-.4-2 .6-2.6 1-4zM13.2 419.4c4.3.7-.8 6 0 0zM-191 426.4c2.8-1.5 2.8 4.4 0 3v-3zM-2.8 429.3c1-4 1 4 0 0zM-172 433.3h1.7v2h-1.8v-2zM-21.6 437.3c-.4-.5.6.6 0 0zM-153.3 440.2c-.4-.4.6.7 0 0zM-40.4 441.2c0-1 1-.7 1.8-1 0 1-1 .8-1.8 1zM-134.5 441.2c3.5 3-3 3.4 0 0zM-60.2 442.2c2.8-1.4 2.8 4.4 0 3v-3zM-77 444.2c2.6-1.5 2.6 4.4 0 3v-3zM-116.6 446.2c.2-1.3 1.8-1 1.8 0-.4 1.4-.8 0-1.8 0zM-96 447.2c3.2-2.4-2.2 3.3 0 0z"/></g></svg>